<svg width="853" height="150" viewBox="0 0 853 150" fill="none" xmlns="http://www.w3.org/2000/svg">
    <path
        d="M0.852462 147V3.49999H61.3275C70.3475 3.49999 78.5475 5.54999 85.9275 9.65C93.3075 13.6133 99.1841 19.2167 103.557 26.46C107.931 33.7033 110.117 42.1767 110.117 51.88C110.117 61.1733 107.931 69.51 103.557 76.89C99.3208 84.1333 93.5125 89.805 86.1325 93.905C78.7525 98.005 70.3475 100.055 60.9175 100.055H20.5325V147H0.852462ZM20.5325 82.63H58.6625C64.5391 82.63 69.8691 81.4683 74.6525 79.145C79.5725 76.685 83.3991 73.1317 86.1325 68.485C89.0025 63.8383 90.4375 58.3033 90.4375 51.88C90.4375 45.32 89.0025 39.785 86.1325 35.275C83.2625 30.6283 79.4358 27.075 74.6525 24.615C69.8691 22.155 64.6075 20.925 58.8675 20.925H20.5325V82.63ZM182.258 147C170.778 147 160.597 144.882 151.713 140.645C142.83 136.272 135.86 130.19 130.803 122.4C125.883 114.473 123.423 105.248 123.423 94.725C123.423 84.3383 125.542 75.045 129.778 66.845C134.015 58.5083 139.892 51.9483 147.408 47.165C154.925 42.3817 163.672 39.99 173.648 39.99C184.445 39.99 193.397 42.3133 200.503 46.96C207.747 51.6067 213.145 57.8933 216.698 65.82C220.252 73.61 222.028 82.3567 222.028 92.06C222.028 93.5633 221.96 95.135 221.823 96.775C221.823 98.415 221.687 99.85 221.413 101.08H143.513C144.197 107.503 146.315 112.97 149.868 117.48C153.422 121.853 157.932 125.202 163.398 127.525C169.002 129.712 175.152 130.805 181.848 130.805H209.113V147H182.258ZM143.308 87.755H202.963C202.963 85.1583 202.69 82.425 202.143 79.555C201.597 76.5483 200.64 73.6783 199.273 70.945C197.907 68.075 196.062 65.5467 193.738 63.36C191.552 61.0367 188.75 59.1917 185.333 57.825C182.053 56.4583 178.158 55.775 173.648 55.775C168.865 55.775 164.628 56.7317 160.938 58.645C157.385 60.4217 154.31 62.8817 151.713 66.025C149.117 69.0317 147.135 72.4483 145.768 76.275C144.402 80.1017 143.582 83.9283 143.308 87.755ZM246.077 147V86.525C246.077 77.2317 248.127 69.1 252.227 62.13C256.464 55.16 262.272 49.7617 269.652 45.935C277.032 41.9717 285.437 39.99 294.867 39.99C304.434 39.99 312.839 41.9717 320.082 45.935C327.462 49.7617 333.202 55.16 337.302 62.13C341.539 69.1 343.657 77.2317 343.657 86.525V147H324.797V86.73C324.797 80.4433 323.362 75.045 320.492 70.535C317.759 65.8883 314.069 62.335 309.422 59.875C304.912 57.415 300.061 56.185 294.867 56.185C289.674 56.185 284.754 57.415 280.107 59.875C275.597 62.335 271.907 65.8883 269.037 70.535C266.304 75.045 264.937 80.4433 264.937 86.73V147H246.077ZM372.167 147V130.805H422.187C425.467 130.805 428.268 130.122 430.592 128.755C433.052 127.252 434.897 125.338 436.127 123.015C437.357 120.692 437.972 118.232 437.972 115.635C437.972 113.175 437.425 110.92 436.332 108.87C435.238 106.683 433.53 104.975 431.207 103.745C429.02 102.378 426.355 101.695 423.212 101.695H402.097C395.4 101.695 389.523 100.602 384.467 98.415C379.547 96.0917 375.652 92.7433 372.782 88.37C370.048 83.9967 368.682 78.6667 368.682 72.38C368.682 67.05 369.98 62.13 372.577 57.62C375.173 53.11 378.795 49.4883 383.442 46.755C388.088 43.885 393.418 42.45 399.432 42.45H447.607V58.645H401.277C397.04 58.645 393.692 59.9433 391.232 62.54C388.772 65.1367 387.542 68.2117 387.542 71.765C387.542 75.1817 388.772 78.1883 391.232 80.785C393.828 83.245 397.45 84.475 402.097 84.475H422.187C429.703 84.475 435.99 85.705 441.047 88.165C446.24 90.4883 450.135 93.905 452.732 98.415C455.465 102.925 456.832 108.46 456.832 115.02C456.832 120.623 455.465 125.885 452.732 130.805C449.998 135.588 446.172 139.483 441.252 142.49C436.468 145.497 430.865 147 424.442 147H372.167ZM481.707 147V42.45H500.772V147H481.707ZM491.342 25.845C487.926 25.845 484.919 24.615 482.322 22.155C479.862 19.5583 478.632 16.5517 478.632 13.135C478.632 9.71832 479.862 6.77999 482.322 4.31999C484.919 1.72333 487.926 0.424993 491.342 0.424993C494.759 0.424993 497.697 1.72333 500.157 4.31999C502.754 6.77999 504.052 9.71832 504.052 13.135C504.052 16.5517 502.754 19.5583 500.157 22.155C497.697 24.615 494.759 25.845 491.342 25.845ZM583.65 147C572.17 147 561.988 144.882 553.105 140.645C544.222 136.272 537.252 130.19 532.195 122.4C527.275 114.473 524.815 105.248 524.815 94.725C524.815 84.3383 526.933 75.045 531.17 66.845C535.407 58.5083 541.283 51.9483 548.8 47.165C556.317 42.3817 565.063 39.99 575.04 39.99C585.837 39.99 594.788 42.3133 601.895 46.96C609.138 51.6067 614.537 57.8933 618.09 65.82C621.643 73.61 623.42 82.3567 623.42 92.06C623.42 93.5633 623.352 95.135 623.215 96.775C623.215 98.415 623.078 99.85 622.805 101.08H544.905C545.588 107.503 547.707 112.97 551.26 117.48C554.813 121.853 559.323 125.202 564.79 127.525C570.393 129.712 576.543 130.805 583.24 130.805H610.505V147H583.65ZM544.7 87.755H604.355C604.355 85.1583 604.082 82.425 603.535 79.555C602.988 76.5483 602.032 73.6783 600.665 70.945C599.298 68.075 597.453 65.5467 595.13 63.36C592.943 61.0367 590.142 59.1917 586.725 57.825C583.445 56.4583 579.55 55.775 575.04 55.775C570.257 55.775 566.02 56.7317 562.33 58.645C558.777 60.4217 555.702 62.8817 553.105 66.025C550.508 69.0317 548.527 72.4483 547.16 76.275C545.793 80.1017 544.973 83.9283 544.7 87.755ZM689.542 149.46C684.895 149.46 680.659 148.162 676.832 145.565C673.142 142.832 670.409 139.005 668.632 134.085L634.602 42.45H655.307L685.647 127.115C686.194 128.482 686.809 129.438 687.492 129.985C688.175 130.532 688.927 130.805 689.747 130.805C690.704 130.805 691.455 130.532 692.002 129.985C692.685 129.438 693.3 128.482 693.847 127.115L724.392 42.45H744.687L710.657 134.085C708.744 139.005 705.942 142.832 702.252 145.565C698.562 148.162 694.325 149.46 689.542 149.46ZM812.873 147C801.393 147 791.212 144.882 782.328 140.645C773.445 136.272 766.475 130.19 761.418 122.4C756.498 114.473 754.038 105.248 754.038 94.725C754.038 84.3383 756.157 75.045 760.393 66.845C764.63 58.5083 770.507 51.9483 778.023 47.165C785.54 42.3817 794.287 39.99 804.263 39.99C815.06 39.99 824.012 42.3133 831.118 46.96C838.362 51.6067 843.76 57.8933 847.313 65.82C850.867 73.61 852.643 82.3567 852.643 92.06C852.643 93.5633 852.575 95.135 852.438 96.775C852.438 98.415 852.302 99.85 852.028 101.08H774.128C774.812 107.503 776.93 112.97 780.483 117.48C784.037 121.853 788.547 125.202 794.013 127.525C799.617 129.712 805.767 130.805 812.463 130.805H839.728V147H812.873ZM773.923 87.755H833.578C833.578 85.1583 833.305 82.425 832.758 79.555C832.212 76.5483 831.255 73.6783 829.888 70.945C828.522 68.075 826.677 65.5467 824.353 63.36C822.167 61.0367 819.365 59.1917 815.948 57.825C812.668 56.4583 808.773 55.775 804.263 55.775C799.48 55.775 795.243 56.7317 791.553 58.645C788 60.4217 784.925 62.8817 782.328 66.025C779.732 69.0317 777.75 72.4483 776.383 76.275C775.017 80.1017 774.197 83.9283 773.923 87.755Z"
        fill="#1E1E1E" />
</svg>