<svg width="446" height="107" viewBox="0 0 446 107" fill="none" xmlns="http://www.w3.org/2000/svg">
    <rect width="446" height="107" rx="53.5" fill="white" />
    <path
        d="M168.696 63.8922V25.8159H184.772C187.17 25.8159 189.349 26.3599 191.311 27.4478C193.273 28.4993 194.835 29.9863 195.997 31.9081C197.16 33.83 197.741 36.0785 197.741 38.6531C197.741 41.1189 197.16 43.331 195.997 45.2892C194.871 47.2111 193.327 48.7161 191.366 49.804C189.404 50.8919 187.17 51.4358 184.663 51.4358H173.928V63.8922H168.696ZM173.928 46.8123H184.063C185.626 46.8123 187.042 46.5039 188.314 45.8876C189.622 45.2348 190.639 44.2921 191.366 43.059C192.128 41.826 192.51 40.3574 192.51 38.6531C192.51 36.9124 192.128 35.4438 191.366 34.2471C190.603 33.0141 189.585 32.0713 188.314 31.4186C187.042 30.7658 185.644 30.4395 184.118 30.4395H173.928V46.8123ZM216.918 63.8922C213.866 63.8922 211.16 63.3302 208.798 62.206C206.437 61.0456 204.584 59.4318 203.24 57.3648C201.932 55.2615 201.278 52.8137 201.278 50.0216C201.278 47.2655 201.842 44.7997 202.968 42.6239C204.094 40.4117 205.656 38.6711 207.654 37.402C209.652 36.1329 211.977 35.4982 214.629 35.4982C217.499 35.4982 219.879 36.1146 221.768 37.3476C223.693 38.5806 225.128 40.2486 226.073 42.3519C227.018 44.4189 227.49 46.7398 227.49 49.3144C227.49 49.7132 227.472 50.1304 227.435 50.5655C227.435 51.0007 227.399 51.3814 227.326 51.7078H206.619C206.8 53.4121 207.363 54.8627 208.308 56.0594C209.253 57.2197 210.452 58.1083 211.904 58.7247C213.394 59.305 215.029 59.595 216.809 59.595H224.057V63.8922H216.918ZM206.564 48.1721H222.422C222.422 47.4831 222.349 46.7579 222.204 45.9964C222.059 45.1985 221.804 44.437 221.441 43.7118C221.078 42.9503 220.587 42.2795 219.97 41.6992C219.388 41.0828 218.644 40.5932 217.735 40.2305C216.863 39.8678 215.828 39.6866 214.629 39.6866C213.358 39.6866 212.231 39.9405 211.251 40.4481C210.306 40.9196 209.489 41.5723 208.798 42.4063C208.108 43.2042 207.581 44.1106 207.218 45.126C206.855 46.1415 206.637 47.1567 206.564 48.1721ZM233.882 63.8922V47.8458C233.882 45.38 234.427 43.2222 235.517 41.3728C236.644 39.5234 238.187 38.0911 240.149 37.0756C242.111 36.0241 244.345 35.4982 246.852 35.4982C249.395 35.4982 251.629 36.0241 253.555 37.0756C255.516 38.0911 257.042 39.5234 258.132 41.3728C259.258 43.2222 259.821 45.38 259.821 47.8458V63.8922H254.808V47.9002C254.808 46.232 254.427 44.7997 253.664 43.603C252.937 42.37 251.956 41.4272 250.721 40.7745C249.522 40.1217 248.233 39.7954 246.852 39.7954C245.472 39.7954 244.164 40.1217 242.928 40.7745C241.73 41.4272 240.749 42.37 239.986 43.603C239.259 44.7997 238.896 46.232 238.896 47.9002V63.8922H233.882ZM267.4 63.8922V59.595H280.697C281.568 59.595 282.313 59.4138 282.931 59.0511C283.585 58.6523 284.075 58.1444 284.402 57.528C284.729 56.9116 284.893 56.2589 284.893 55.5698C284.893 54.9171 284.747 54.3187 284.457 53.7748C284.166 53.1945 283.712 52.7413 283.094 52.4149C282.513 52.0522 281.804 51.871 280.969 51.871H275.356C273.576 51.871 272.014 51.581 270.67 51.0007C269.362 50.3843 268.326 49.4957 267.564 48.3353C266.837 47.175 266.474 45.7607 266.474 44.0925C266.474 42.6783 266.819 41.3728 267.509 40.1761C268.199 38.9794 269.162 38.0184 270.397 37.2932C271.632 36.5317 273.049 36.1509 274.648 36.1509H287.454V40.4481H275.138C274.012 40.4481 273.122 40.7925 272.468 41.4816C271.814 42.1707 271.487 42.9866 271.487 43.9294C271.487 44.836 271.814 45.6336 272.468 46.3227C273.158 46.9755 274.121 47.3018 275.356 47.3018H280.697C282.694 47.3018 284.366 47.6282 285.71 48.2809C287.09 48.8973 288.126 49.804 288.816 51.0007C289.543 52.1974 289.906 53.666 289.906 55.4066C289.906 56.8933 289.543 58.2896 288.816 59.595C288.089 60.8641 287.072 61.8976 285.764 62.6955C284.493 63.4934 283.003 63.8922 281.296 63.8922H267.4ZM296.518 63.8922V36.1509H301.586V63.8922H296.518ZM299.079 31.7449C298.171 31.7449 297.372 31.4186 296.682 30.7658C296.028 30.0768 295.701 29.2791 295.701 28.3725C295.701 27.4658 296.028 26.6862 296.682 26.0335C297.372 25.3444 298.171 25 299.079 25C299.988 25 300.769 25.3444 301.423 26.0335C302.113 26.6862 302.458 27.4658 302.458 28.3725C302.458 29.2791 302.113 30.0768 301.423 30.7658C300.769 31.4186 299.988 31.7449 299.079 31.7449ZM323.617 63.8922C320.565 63.8922 317.859 63.3302 315.497 62.206C313.136 61.0456 311.283 59.4318 309.939 57.3648C308.631 55.2615 307.977 52.8137 307.977 50.0216C307.977 47.2655 308.54 44.7997 309.667 42.6239C310.793 40.4117 312.355 38.6711 314.353 37.402C316.351 36.1329 318.676 35.4982 321.328 35.4982C324.198 35.4982 326.578 36.1146 328.467 37.3476C330.392 38.5806 331.828 40.2486 332.772 42.3519C333.716 44.4189 334.189 46.7398 334.189 49.3144C334.189 49.7132 334.171 50.1304 334.134 50.5655C334.134 51.0007 334.098 51.3814 334.025 51.7078H313.318C313.499 53.4121 314.063 54.8627 315.007 56.0594C315.952 57.2197 317.15 58.1083 318.604 58.7247C320.093 59.305 321.728 59.595 323.508 59.595H330.756V63.8922H323.617ZM313.263 48.1721H329.121C329.121 47.4831 329.048 46.7579 328.903 45.9964C328.758 45.1985 328.503 44.437 328.14 43.7118C327.777 42.9503 327.286 42.2795 326.669 41.6992C326.087 41.0828 325.343 40.5932 324.434 40.2305C323.563 39.8678 322.527 39.6866 321.328 39.6866C320.057 39.6866 318.931 39.9405 317.95 40.4481C317.005 40.9196 316.188 41.5723 315.497 42.4063C314.807 43.2042 314.281 44.1106 313.917 45.126C313.554 46.1415 313.336 47.1567 313.263 48.1721ZM351.766 64.545C350.53 64.545 349.404 64.2005 348.387 63.5114C347.406 62.7863 346.68 61.7708 346.207 60.4653L337.161 36.1509H342.665L350.73 58.6159C350.876 58.9786 351.039 59.2323 351.221 59.3774C351.402 59.5226 351.602 59.595 351.82 59.595C352.074 59.595 352.274 59.5226 352.419 59.3774C352.601 59.2323 352.765 58.9786 352.91 58.6159L361.029 36.1509H366.424L357.378 60.4653C356.87 61.7708 356.125 62.7863 355.144 63.5114C354.163 64.2005 353.037 64.545 351.766 64.545ZM384.55 63.8922C381.498 63.8922 378.792 63.3302 376.43 62.206C374.069 61.0456 372.216 59.4318 370.872 57.3648C369.564 55.2615 368.91 52.8137 368.91 50.0216C368.91 47.2655 369.473 44.7997 370.599 42.6239C371.726 40.4117 373.288 38.6711 375.286 37.402C377.284 36.1329 379.609 35.4982 382.261 35.4982C385.131 35.4982 387.511 36.1146 389.4 37.3476C391.325 38.5806 392.76 40.2486 393.705 42.3519C394.649 44.4189 395.122 46.7398 395.122 49.3144C395.122 49.7132 395.103 50.1304 395.067 50.5655C395.067 51.0007 395.031 51.3814 394.958 51.7078H374.25C374.432 53.4121 374.995 54.8627 375.94 56.0594C376.884 57.2197 378.083 58.1083 379.536 58.7247C381.026 59.305 382.661 59.595 384.441 59.595H391.688V63.8922H384.55ZM374.196 48.1721H390.054C390.054 47.4831 389.981 46.7579 389.836 45.9964C389.69 45.1985 389.436 44.437 389.073 43.7118C388.71 42.9503 388.219 42.2795 387.601 41.6992C387.02 41.0828 386.275 40.5932 385.367 40.2305C384.495 39.8678 383.46 39.6866 382.261 39.6866C380.99 39.6866 379.863 39.9405 378.882 40.4481C377.938 40.9196 377.121 41.5723 376.43 42.4063C375.74 43.2042 375.213 44.1106 374.85 45.126C374.487 46.1415 374.269 47.1567 374.196 48.1721Z"
        fill="#1E1E1E" />
    <path
        d="M166.433 76.9562H170.564V77.6583H166.433V76.9562ZM166.522 80.5558H171.223V81.2691H165.696V73.4681H171.055V74.1813H166.522V80.5558ZM172.997 81.2691V73H173.79V81.2691H172.997ZM178.485 81.3248C177.875 81.3248 177.339 81.1985 176.878 80.9459C176.416 80.6858 176.055 80.3329 175.795 79.8872C175.534 79.434 175.404 78.9176 175.404 78.3381C175.404 77.7586 175.527 77.246 175.772 76.8002C176.025 76.3544 176.368 76.0052 176.799 75.7526C177.239 75.4926 177.73 75.3626 178.273 75.3626C178.824 75.3626 179.311 75.4889 179.736 75.7415C180.167 75.9867 180.506 76.3359 180.752 76.7891C180.997 77.2348 181.12 77.7512 181.12 78.3381C181.12 78.3753 181.116 78.4161 181.109 78.4607C181.109 78.4978 181.109 78.5387 181.109 78.5833H176.007V77.9926H180.685L180.372 78.2267C180.372 77.8032 180.279 77.428 180.093 77.1011C179.914 76.7668 179.669 76.5067 179.356 76.321C179.043 76.1353 178.682 76.0424 178.273 76.0424C177.871 76.0424 177.51 76.1353 177.19 76.321C176.87 76.5067 176.621 76.7668 176.442 77.1011C176.263 77.4354 176.174 77.818 176.174 78.249V78.3715C176.174 78.8173 176.271 79.2111 176.464 79.5528C176.665 79.8872 176.941 80.1509 177.291 80.3441C177.648 80.5298 178.054 80.6227 178.508 80.6227C178.865 80.6227 179.196 80.5595 179.501 80.4332C179.814 80.3069 180.082 80.1138 180.305 79.8537L180.752 80.3664C180.491 80.6784 180.164 80.9162 179.769 81.0796C179.382 81.2431 178.954 81.3248 178.485 81.3248ZM184.132 81.2691L181.53 75.4183H182.357L184.746 80.8456H184.355L186.778 75.4183H187.559L184.947 81.2691H184.132ZM192.174 81.2691V79.9763L192.141 79.7646V77.6026C192.141 77.1048 191.999 76.7222 191.717 76.4547C191.441 76.1873 191.028 76.0535 190.477 76.0535C190.098 76.0535 189.737 76.1167 189.394 76.243C189.052 76.3693 188.762 76.5365 188.523 76.7445L188.166 76.1538C188.464 75.9012 188.821 75.7081 189.238 75.5743C189.655 75.4332 190.094 75.3626 190.555 75.3626C191.315 75.3626 191.899 75.552 192.308 75.931C192.725 76.3024 192.934 76.8708 192.934 77.636V81.2691H192.174ZM190.153 81.3248C189.714 81.3248 189.331 81.2542 189.004 81.113C188.683 80.9644 188.438 80.7638 188.267 80.5112C188.095 80.2512 188.01 79.954 188.01 79.6197C188.01 79.3151 188.081 79.0402 188.222 78.795C188.371 78.5424 188.609 78.3418 188.937 78.1932C189.271 78.0372 189.718 77.9592 190.276 77.9592H192.297V78.5499H190.299C189.733 78.5499 189.338 78.6501 189.115 78.8507C188.899 79.0513 188.791 79.3002 188.791 79.5974C188.791 79.9317 188.922 80.1992 189.182 80.3998C189.443 80.6004 189.807 80.7007 190.276 80.7007C190.723 80.7007 191.106 80.6004 191.426 80.3998C191.754 80.1918 191.992 79.8946 192.141 79.5083L192.319 80.0543C192.171 80.4407 191.91 80.749 191.538 80.9793C191.173 81.2096 190.712 81.3248 190.153 81.3248ZM196.94 81.3248C196.389 81.3248 195.965 81.1762 195.667 80.879C195.369 80.5818 195.22 80.1621 195.22 79.6197V74.1256H196.013V79.5751C196.013 79.9169 196.099 80.1806 196.27 80.3664C196.448 80.5521 196.702 80.645 197.029 80.645C197.379 80.645 197.669 80.5447 197.9 80.3441L198.179 80.9124C198.023 81.0536 197.833 81.1576 197.61 81.2245C197.394 81.2913 197.17 81.3248 196.94 81.3248ZM194.171 76.0758V75.4183H197.799V76.0758H194.171ZM201.904 81.3248C201.294 81.3248 200.758 81.1985 200.297 80.9459C199.835 80.6858 199.474 80.3329 199.214 79.8872C198.953 79.434 198.823 78.9176 198.823 78.3381C198.823 77.7586 198.946 77.246 199.192 76.8002C199.445 76.3544 199.787 76.0052 200.219 75.7526C200.658 75.4926 201.149 75.3626 201.692 75.3626C202.243 75.3626 202.731 75.4889 203.155 75.7415C203.587 75.9867 203.925 76.3359 204.171 76.7891C204.417 77.2348 204.539 77.7512 204.539 78.3381C204.539 78.3753 204.536 78.4161 204.528 78.4607C204.528 78.4978 204.528 78.5387 204.528 78.5833H199.426V77.9926H204.104L203.791 78.2267C203.791 77.8032 203.698 77.428 203.512 77.1011C203.334 76.7668 203.088 76.5067 202.775 76.321C202.463 76.1353 202.102 76.0424 201.692 76.0424C201.29 76.0424 200.929 76.1353 200.609 76.321C200.289 76.5067 200.04 76.7668 199.861 77.1011C199.683 77.4354 199.593 77.818 199.593 78.249V78.3715C199.593 78.8173 199.69 79.2111 199.884 79.5528C200.085 79.8872 200.36 80.1509 200.71 80.3441C201.067 80.5298 201.473 80.6227 201.927 80.6227C202.284 80.6227 202.615 80.5595 202.92 80.4332C203.233 80.3069 203.501 80.1138 203.724 79.8537L204.171 80.3664C203.91 80.6784 203.583 80.9162 203.188 81.0796C202.801 81.2431 202.373 81.3248 201.904 81.3248ZM211.107 81.2691V78.3715L211.297 78.8842L207.981 73.4681H208.863L211.777 78.2267H211.308L214.222 73.4681H215.048L211.732 78.8842L211.922 78.3715V81.2691H211.107ZM217.886 81.3248C217.32 81.3248 216.81 81.1985 216.356 80.9459C215.91 80.6858 215.556 80.3329 215.296 79.8872C215.035 79.434 214.905 78.9176 214.905 78.3381C214.905 77.7512 215.035 77.2348 215.296 76.7891C215.556 76.3433 215.91 75.9941 216.356 75.7415C216.803 75.4889 217.313 75.3626 217.886 75.3626C218.466 75.3626 218.98 75.4889 219.426 75.7415C219.88 75.9941 220.234 76.3433 220.487 76.7891C220.748 77.2348 220.878 77.7512 220.878 78.3381C220.878 78.9176 220.748 79.434 220.487 79.8872C220.234 80.3329 219.88 80.6858 219.426 80.9459C218.972 81.1985 218.459 81.3248 217.886 81.3248ZM217.886 80.6227C218.31 80.6227 218.686 80.5298 219.013 80.3441C219.341 80.1509 219.598 79.8834 219.784 79.5417C219.977 79.1925 220.074 78.7913 220.074 78.3381C220.074 77.8775 219.977 77.4763 219.784 77.1345C219.598 76.7928 219.341 76.529 219.013 76.3433C218.686 76.1501 218.314 76.0535 217.897 76.0535C217.48 76.0535 217.108 76.1501 216.78 76.3433C216.453 76.529 216.192 76.7928 215.999 77.1345C215.805 77.4763 215.709 77.8775 215.709 78.3381C215.709 78.7913 215.805 79.1925 215.999 79.5417C216.192 79.8834 216.453 80.1509 216.78 80.3441C217.108 80.5298 217.476 80.6227 217.886 80.6227ZM224.919 81.3248C224.42 81.3248 223.985 81.2319 223.613 81.0462C223.24 80.8604 222.95 80.5818 222.742 80.2104C222.541 79.8389 222.44 79.3745 222.44 78.8173V75.4183H223.233V78.7282C223.233 79.3522 223.386 79.824 223.691 80.1435C224.003 80.4555 224.439 80.6115 224.997 80.6115C225.406 80.6115 225.76 80.5298 226.058 80.3664C226.363 80.1955 226.594 79.9503 226.75 79.6308C226.914 79.3114 226.996 78.9288 226.996 78.483V75.4183H227.788V81.2691H227.029V79.6643L227.152 79.954C226.966 80.3849 226.675 80.723 226.281 80.9682C225.894 81.2059 225.44 81.3248 224.919 81.3248ZM229.997 81.2691V75.4183H230.757V77.0119L230.678 76.7333C230.842 76.2876 231.118 75.9495 231.505 75.7192C231.892 75.4815 232.372 75.3626 232.945 75.3626V76.1315C232.915 76.1315 232.885 76.1315 232.856 76.1315C232.826 76.1241 232.796 76.1204 232.766 76.1204C232.148 76.1204 231.665 76.3098 231.315 76.6888C230.965 77.0602 230.79 77.5914 230.79 78.2824V81.2691H229.997ZM239.086 81.2691V74.1813H236.34V73.4681H242.659V74.1813H239.913V81.2691H239.086ZM246.804 75.3626C247.28 75.3626 247.697 75.4555 248.054 75.6412C248.419 75.8195 248.702 76.0944 248.902 76.4659C249.111 76.8373 249.215 77.3054 249.215 77.8701V81.2691H248.422V77.9481C248.422 77.3314 248.266 76.8671 247.953 76.555C247.648 76.2356 247.217 76.0758 246.658 76.0758C246.242 76.0758 245.877 76.1613 245.564 76.3321C245.259 76.4956 245.021 76.7371 244.85 77.0565C244.686 77.3686 244.604 77.7475 244.604 78.1932V81.2691H243.811V73H244.604V77.0231L244.448 76.7222C244.634 76.2987 244.932 75.9681 245.341 75.7303C245.75 75.4852 246.238 75.3626 246.804 75.3626ZM253.746 81.3248C253.18 81.3248 252.67 81.1985 252.216 80.9459C251.769 80.6858 251.416 80.3329 251.155 79.8872C250.895 79.434 250.765 78.9176 250.765 78.3381C250.765 77.7512 250.895 77.2348 251.155 76.7891C251.416 76.3433 251.769 75.9941 252.216 75.7415C252.663 75.4889 253.172 75.3626 253.746 75.3626C254.326 75.3626 254.84 75.4889 255.286 75.7415C255.74 75.9941 256.094 76.3433 256.347 76.7891C256.607 77.2348 256.738 77.7512 256.738 78.3381C256.738 78.9176 256.607 79.434 256.347 79.8872C256.094 80.3329 255.74 80.6858 255.286 80.9459C254.832 81.1985 254.319 81.3248 253.746 81.3248ZM253.746 80.6227C254.17 80.6227 254.546 80.5298 254.873 80.3441C255.201 80.1509 255.457 79.8834 255.643 79.5417C255.837 79.1925 255.934 78.7913 255.934 78.3381C255.934 77.8775 255.837 77.4763 255.643 77.1345C255.457 76.7928 255.201 76.529 254.873 76.3433C254.546 76.1501 254.173 76.0535 253.757 76.0535C253.34 76.0535 252.968 76.1501 252.64 76.3433C252.313 76.529 252.052 76.7928 251.859 77.1345C251.665 77.4763 251.568 77.8775 251.568 78.3381C251.568 78.7913 251.665 79.1925 251.859 79.5417C252.052 79.8834 252.313 80.1509 252.64 80.3441C252.968 80.5298 253.336 80.6227 253.746 80.6227ZM260.779 81.3248C260.28 81.3248 259.845 81.2319 259.472 81.0462C259.1 80.8604 258.81 80.5818 258.602 80.2104C258.401 79.8389 258.3 79.3745 258.3 78.8173V75.4183H259.093V78.7282C259.093 79.3522 259.245 79.824 259.551 80.1435C259.863 80.4555 260.299 80.6115 260.857 80.6115C261.266 80.6115 261.62 80.5298 261.917 80.3664C262.223 80.1955 262.453 79.9503 262.61 79.6308C262.773 79.3114 262.855 78.9288 262.855 78.483V75.4183H263.648V81.2691H262.889V79.6643L263.012 79.954C262.825 80.3849 262.535 80.723 262.141 80.9682C261.754 81.2059 261.3 81.3248 260.779 81.3248ZM268.358 83.4868C267.822 83.4868 267.309 83.4088 266.817 83.2527C266.326 83.0967 265.928 82.8738 265.623 82.5841L266.025 81.9823C266.3 82.2275 266.639 82.4206 267.041 82.5618C267.45 82.7104 267.882 82.7847 268.336 82.7847C269.08 82.7847 269.627 82.6101 269.977 82.2609C270.327 81.9191 270.502 81.3842 270.502 80.6561V79.1962L270.613 78.1932L270.535 77.1902V75.4183H271.294V80.5558C271.294 81.5662 271.045 82.3055 270.546 82.7735C270.055 83.249 269.326 83.4868 268.358 83.4868ZM268.213 81.0462C267.655 81.0462 267.152 80.9273 266.706 80.6895C266.259 80.4444 265.906 80.1063 265.645 79.6754C265.392 79.2445 265.265 78.7505 265.265 78.1932C265.265 77.636 265.392 77.1457 265.645 76.7222C265.906 76.2913 266.259 75.9569 266.706 75.7192C267.152 75.4815 267.655 75.3626 268.213 75.3626C268.734 75.3626 269.203 75.4703 269.62 75.6858C270.036 75.9012 270.368 76.2207 270.613 76.6442C270.859 77.0677 270.982 77.584 270.982 78.1932C270.982 78.8025 270.859 79.3188 270.613 79.7423C270.368 80.1658 270.036 80.489 269.62 80.7118C269.203 80.9347 268.734 81.0462 268.213 81.0462ZM268.291 80.3441C268.723 80.3441 269.106 80.2549 269.441 80.0766C269.776 79.8909 270.04 79.6383 270.234 79.3188C270.427 78.9919 270.524 78.6167 270.524 78.1932C270.524 77.7698 270.427 77.3983 270.234 77.0788C270.04 76.7593 269.776 76.5104 269.441 76.3321C269.106 76.1464 268.723 76.0535 268.291 76.0535C267.867 76.0535 267.483 76.1464 267.141 76.3321C266.806 76.5104 266.542 76.7593 266.348 77.0788C266.162 77.3983 266.069 77.7698 266.069 78.1932C266.069 78.6167 266.162 78.9919 266.348 79.3188C266.542 79.6383 266.806 79.8909 267.141 80.0766C267.483 80.2549 267.867 80.3441 268.291 80.3441ZM276.492 75.3626C276.969 75.3626 277.385 75.4555 277.743 75.6412C278.107 75.8195 278.39 76.0944 278.591 76.4659C278.8 76.8373 278.904 77.3054 278.904 77.8701V81.2691H278.111V77.9481C278.111 77.3314 277.955 76.8671 277.642 76.555C277.337 76.2356 276.905 76.0758 276.347 76.0758C275.93 76.0758 275.566 76.1613 275.253 76.3321C274.948 76.4956 274.71 76.7371 274.538 77.0565C274.375 77.3686 274.293 77.7475 274.293 78.1932V81.2691H273.5V73H274.293V77.0231L274.137 76.7222C274.323 76.2987 274.62 75.9681 275.03 75.7303C275.439 75.4852 275.927 75.3626 276.492 75.3626ZM282.898 81.3248C282.347 81.3248 281.923 81.1762 281.625 80.879C281.328 80.5818 281.179 80.1621 281.179 79.6197V74.1256H281.971V79.5751C281.971 79.9169 282.057 80.1806 282.228 80.3664C282.407 80.5521 282.66 80.645 282.987 80.645C283.337 80.645 283.627 80.5447 283.858 80.3441L284.137 80.9124C283.981 81.0536 283.791 81.1576 283.568 81.2245C283.352 81.2913 283.129 81.3248 282.898 81.3248ZM280.129 76.0758V75.4183H283.758V76.0758H280.129ZM287.155 81.3248C286.671 81.3248 286.213 81.2579 285.781 81.1242C285.35 80.983 285.011 80.8084 284.765 80.6004L285.123 79.9763C285.361 80.1546 285.666 80.3107 286.038 80.4444C286.41 80.5707 286.801 80.6338 287.21 80.6338C287.769 80.6338 288.171 80.5484 288.416 80.3775C288.662 80.1992 288.785 79.9652 288.785 79.6754C288.785 79.46 288.714 79.2928 288.573 79.1739C288.439 79.0476 288.26 78.9548 288.037 78.8953C287.813 78.8285 287.564 78.7727 287.289 78.7282C287.013 78.6836 286.738 78.6316 286.462 78.5721C286.194 78.5127 285.949 78.4273 285.726 78.3158C285.502 78.1969 285.32 78.0372 285.179 77.8366C285.045 77.636 284.978 77.3686 284.978 77.0342C284.978 76.7148 285.067 76.4287 285.246 76.1761C285.424 75.9235 285.685 75.7266 286.027 75.5855C286.377 75.4369 286.801 75.3626 287.3 75.3626C287.679 75.3626 288.059 75.4146 288.439 75.5186C288.818 75.6152 289.131 75.7452 289.376 75.9087L289.03 76.5439C288.77 76.3656 288.491 76.2393 288.193 76.165C287.895 76.0832 287.598 76.0424 287.3 76.0424C286.771 76.0424 286.381 76.1353 286.128 76.321C285.882 76.4993 285.759 76.7296 285.759 77.0119C285.759 77.2348 285.826 77.4094 285.96 77.5357C286.101 77.662 286.284 77.7623 286.507 77.8366C286.738 77.9035 286.987 77.9592 287.255 78.0038C287.531 78.0484 287.802 78.1041 288.07 78.1709C288.346 78.2304 288.595 78.3158 288.818 78.4273C289.049 78.5313 289.231 78.6836 289.365 78.8842C289.507 79.0774 289.577 79.3337 289.577 79.6531C289.577 79.9949 289.481 80.2921 289.287 80.5447C289.101 80.7899 288.826 80.983 288.461 81.1242C288.104 81.2579 287.668 81.3248 287.155 81.3248ZM290.552 82.8961L291.043 80.8344L291.132 81.3136C290.961 81.3136 290.816 81.2579 290.697 81.1465C290.585 81.035 290.53 80.8902 290.53 80.7118C290.53 80.5335 290.585 80.3887 290.697 80.2772C290.816 80.1658 290.958 80.1101 291.121 80.1101C291.292 80.1101 291.43 80.1695 291.534 80.2884C291.646 80.4072 291.702 80.5484 291.702 80.7118C291.702 80.7713 291.698 80.8307 291.691 80.8902C291.683 80.9496 291.668 81.0165 291.646 81.0907C291.624 81.165 291.594 81.2542 291.557 81.3582L291.088 82.8961H290.552ZM297.224 76.9562H301.355V77.6583H297.224V76.9562ZM297.313 80.5558H302.014V81.2691H296.487V73.4681H301.846V74.1813H297.313V80.5558ZM311.112 75.3626C311.589 75.3626 312.002 75.4555 312.351 75.6412C312.709 75.8195 312.984 76.0944 313.178 76.4659C313.379 76.8373 313.479 77.3054 313.479 77.8701V81.2691H312.686V77.9481C312.686 77.3314 312.538 76.8671 312.24 76.555C311.95 76.2356 311.536 76.0758 311.001 76.0758C310.599 76.0758 310.249 76.1613 309.951 76.3321C309.661 76.4956 309.434 76.7371 309.27 77.0565C309.114 77.3686 309.036 77.7475 309.036 78.1932V81.2691H308.243V77.9481C308.243 77.3314 308.094 76.8671 307.796 76.555C307.499 76.2356 307.082 76.0758 306.546 76.0758C306.151 76.0758 305.805 76.1613 305.508 76.3321C305.21 76.4956 304.979 76.7371 304.815 77.0565C304.659 77.3686 304.581 77.7475 304.581 78.1932V81.2691H303.788V75.4183H304.547V77.0008L304.425 76.7222C304.603 76.2987 304.89 75.9681 305.284 75.7303C305.686 75.4852 306.159 75.3626 306.702 75.3626C307.275 75.3626 307.763 75.5075 308.165 75.7972C308.567 76.0795 308.827 76.5067 308.946 77.0788L308.634 76.9562C308.805 76.4807 309.106 76.0981 309.538 75.8084C309.977 75.5112 310.502 75.3626 311.112 75.3626ZM318.654 81.3248C318.148 81.3248 317.69 81.2096 317.281 80.9793C316.872 80.7416 316.544 80.4035 316.299 79.9652C316.06 79.5194 315.941 78.977 315.941 78.3381C315.941 77.6992 316.06 77.1605 316.299 76.7222C316.537 76.2764 316.861 75.9384 317.27 75.7081C317.679 75.4777 318.141 75.3626 318.654 75.3626C319.213 75.3626 319.711 75.4889 320.15 75.7415C320.597 75.9867 320.947 76.3359 321.2 76.7891C321.453 77.2348 321.579 77.7512 321.579 78.3381C321.579 78.9325 321.453 79.4525 321.2 79.8983C320.947 80.3441 320.597 80.6933 320.15 80.9459C319.711 81.1985 319.213 81.3248 318.654 81.3248ZM315.629 83.431V75.4183H316.388V77.1791L316.31 78.3492L316.421 79.5305V83.431H315.629ZM318.599 80.6227C319.015 80.6227 319.388 80.5298 319.715 80.3441C320.042 80.1509 320.303 79.8834 320.497 79.5417C320.69 79.1925 320.787 78.7913 320.787 78.3381C320.787 77.8849 320.69 77.4874 320.497 77.1457C320.303 76.8039 320.042 76.5364 319.715 76.3433C319.388 76.1501 319.015 76.0535 318.599 76.0535C318.182 76.0535 317.806 76.1501 317.471 76.3433C317.143 76.5364 316.883 76.8039 316.689 77.1457C316.503 77.4874 316.41 77.8849 316.41 78.3381C316.41 78.7913 316.503 79.1925 316.689 79.5417C316.883 79.8834 317.143 80.1509 317.471 80.3441C317.806 80.5298 318.182 80.6227 318.599 80.6227ZM325.585 81.3248C325.019 81.3248 324.509 81.1985 324.055 80.9459C323.609 80.6858 323.255 80.3329 322.994 79.8872C322.734 79.434 322.604 78.9176 322.604 78.3381C322.604 77.7512 322.734 77.2348 322.994 76.7891C323.255 76.3433 323.609 75.9941 324.055 75.7415C324.502 75.4889 325.012 75.3626 325.585 75.3626C326.165 75.3626 326.679 75.4889 327.125 75.7415C327.579 75.9941 327.933 76.3433 328.186 76.7891C328.446 77.2348 328.577 77.7512 328.577 78.3381C328.577 78.9176 328.446 79.434 328.186 79.8872C327.933 80.3329 327.579 80.6858 327.125 80.9459C326.671 81.1985 326.158 81.3248 325.585 81.3248ZM325.585 80.6227C326.009 80.6227 326.385 80.5298 326.712 80.3441C327.04 80.1509 327.297 79.8834 327.483 79.5417C327.676 79.1925 327.773 78.7913 327.773 78.3381C327.773 77.8775 327.676 77.4763 327.483 77.1345C327.297 76.7928 327.04 76.529 326.712 76.3433C326.385 76.1501 326.013 76.0535 325.596 76.0535C325.179 76.0535 324.807 76.1501 324.479 76.3433C324.152 76.529 323.891 76.7928 323.698 77.1345C323.504 77.4763 323.408 77.8775 323.408 78.3381C323.408 78.7913 323.504 79.1925 323.698 79.5417C323.891 79.8834 324.152 80.1509 324.479 80.3441C324.807 80.5298 325.175 80.6227 325.585 80.6227ZM331.226 81.2691L329.016 75.4183H329.775L331.784 80.8456H331.438L333.504 75.4183H334.185L336.228 80.8456H335.882L337.925 75.4183H338.651L336.429 81.2691H335.681L333.716 76.165H333.95L331.974 81.2691H331.226ZM342.17 81.3248C341.56 81.3248 341.024 81.1985 340.562 80.9459C340.101 80.6858 339.74 80.3329 339.479 79.8872C339.219 79.434 339.089 78.9176 339.089 78.3381C339.089 77.7586 339.212 77.246 339.457 76.8002C339.71 76.3544 340.053 76.0052 340.484 75.7526C340.923 75.4926 341.415 75.3626 341.958 75.3626C342.509 75.3626 342.996 75.4889 343.421 75.7415C343.852 75.9867 344.191 76.3359 344.437 76.7891C344.682 77.2348 344.805 77.7512 344.805 78.3381C344.805 78.3753 344.801 78.4161 344.794 78.4607C344.794 78.4978 344.794 78.5387 344.794 78.5833H339.692V77.9926H344.37L344.057 78.2267C344.057 77.8032 343.964 77.428 343.778 77.1011C343.599 76.7668 343.354 76.5067 343.041 76.321C342.728 76.1353 342.367 76.0424 341.958 76.0424C341.556 76.0424 341.195 76.1353 340.875 76.321C340.555 76.5067 340.306 76.7668 340.127 77.1011C339.948 77.4354 339.859 77.818 339.859 78.249V78.3715C339.859 78.8173 339.956 79.2111 340.149 79.5528C340.35 79.8872 340.626 80.1509 340.976 80.3441C341.333 80.5298 341.738 80.6227 342.192 80.6227C342.55 80.6227 342.881 80.5595 343.186 80.4332C343.499 80.3069 343.767 80.1138 343.99 79.8537L344.437 80.3664C344.176 80.6784 343.849 80.9162 343.454 81.0796C343.067 81.2431 342.639 81.3248 342.17 81.3248ZM346.418 81.2691V75.4183H347.178V77.0119L347.1 76.7333C347.263 76.2876 347.539 75.9495 347.926 75.7192C348.313 75.4815 348.793 75.3626 349.366 75.3626V76.1315C349.336 76.1315 349.306 76.1315 349.277 76.1315C349.247 76.1241 349.217 76.1204 349.187 76.1204C348.57 76.1204 348.086 76.3098 347.736 76.6888C347.386 77.0602 347.211 77.5914 347.211 78.2824V81.2691H346.418ZM353.247 81.3248C352.637 81.3248 352.101 81.1985 351.64 80.9459C351.178 80.6858 350.817 80.3329 350.557 79.8872C350.296 79.434 350.166 78.9176 350.166 78.3381C350.166 77.7586 350.289 77.246 350.534 76.8002C350.788 76.3544 351.13 76.0052 351.562 75.7526C352.001 75.4926 352.492 75.3626 353.035 75.3626C353.586 75.3626 354.074 75.4889 354.498 75.7415C354.93 75.9867 355.268 76.3359 355.514 76.7891C355.76 77.2348 355.882 77.7512 355.882 78.3381C355.882 78.3753 355.879 78.4161 355.871 78.4607C355.871 78.4978 355.871 78.5387 355.871 78.5833H350.769V77.9926H355.447L355.134 78.2267C355.134 77.8032 355.041 77.428 354.855 77.1011C354.677 76.7668 354.431 76.5067 354.118 76.321C353.806 76.1353 353.445 76.0424 353.035 76.0424C352.633 76.0424 352.272 76.1353 351.952 76.321C351.632 76.5067 351.383 76.7668 351.204 77.1011C351.026 77.4354 350.936 77.818 350.936 78.249V78.3715C350.936 78.8173 351.033 79.2111 351.227 79.5528C351.428 79.8872 351.703 80.1509 352.053 80.3441C352.41 80.5298 352.816 80.6227 353.27 80.6227C353.627 80.6227 353.958 80.5595 354.263 80.4332C354.576 80.3069 354.844 80.1138 355.067 79.8537L355.514 80.3664C355.253 80.6784 354.926 80.9162 354.531 81.0796C354.144 81.2431 353.716 81.3248 353.247 81.3248ZM359.829 81.3248C359.271 81.3248 358.769 81.1985 358.322 80.9459C357.883 80.6933 357.537 80.3441 357.284 79.8983C357.031 79.4451 356.904 78.925 356.904 78.3381C356.904 77.7437 357.031 77.2237 357.284 76.7779C357.537 76.3321 357.883 75.9867 358.322 75.7415C358.769 75.4889 359.271 75.3626 359.829 75.3626C360.343 75.3626 360.801 75.4777 361.202 75.7081C361.612 75.9384 361.936 76.2764 362.174 76.7222C362.419 77.1605 362.542 77.6992 362.542 78.3381C362.542 78.9696 362.423 79.5083 362.185 79.954C361.947 80.3998 361.623 80.7416 361.214 80.9793C360.812 81.2096 360.35 81.3248 359.829 81.3248ZM359.885 80.6227C360.302 80.6227 360.674 80.5298 361.002 80.3441C361.336 80.1509 361.597 79.8834 361.783 79.5417C361.977 79.1925 362.073 78.7913 362.073 78.3381C362.073 77.8775 361.977 77.4763 361.783 77.1345C361.597 76.7928 361.336 76.529 361.002 76.3433C360.674 76.1501 360.302 76.0535 359.885 76.0535C359.476 76.0535 359.107 76.1501 358.78 76.3433C358.452 76.529 358.192 76.7928 357.998 77.1345C357.805 77.4763 357.708 77.8775 357.708 78.3381C357.708 78.7913 357.805 79.1925 357.998 79.5417C358.192 79.8834 358.452 80.1509 358.78 80.3441C359.107 80.5298 359.476 80.6227 359.885 80.6227ZM362.096 81.2691V79.5083L362.174 78.327L362.062 77.1457V73H362.855V81.2691H362.096ZM371.01 81.3248C370.496 81.3248 370.035 81.2096 369.626 80.9793C369.216 80.7416 368.892 80.3998 368.654 79.954C368.416 79.5083 368.297 78.9696 368.297 78.3381C368.297 77.6992 368.416 77.1605 368.654 76.7222C368.9 76.2764 369.227 75.9384 369.637 75.7081C370.046 75.4777 370.504 75.3626 371.01 75.3626C371.568 75.3626 372.067 75.4889 372.506 75.7415C372.953 75.9867 373.302 76.3321 373.556 76.7779C373.809 77.2237 373.935 77.7437 373.935 78.3381C373.935 78.925 373.809 79.4451 373.556 79.8983C373.302 80.3441 372.953 80.6933 372.506 80.9459C372.067 81.1985 371.568 81.3248 371.01 81.3248ZM367.984 81.2691V73H368.777V77.1457L368.665 78.327L368.744 79.5083V81.2691H367.984ZM370.954 80.6227C371.371 80.6227 371.743 80.5298 372.071 80.3441C372.398 80.1509 372.659 79.8834 372.852 79.5417C373.046 79.1925 373.142 78.7913 373.142 78.3381C373.142 77.8775 373.046 77.4763 372.852 77.1345C372.659 76.7928 372.398 76.529 372.071 76.3433C371.743 76.1501 371.371 76.0535 370.954 76.0535C370.537 76.0535 370.162 76.1501 369.827 76.3433C369.499 76.529 369.239 76.7928 369.045 77.1345C368.859 77.4763 368.766 77.8775 368.766 78.3381C368.766 78.7913 368.859 79.1925 369.045 79.5417C369.239 79.8834 369.499 80.1509 369.827 80.3441C370.162 80.5298 370.537 80.6227 370.954 80.6227ZM375.432 83.4868C375.157 83.4868 374.893 83.4422 374.64 83.353C374.394 83.2639 374.182 83.1301 374.003 82.9518L374.372 82.3612C374.52 82.5024 374.681 82.6101 374.852 82.6844C375.03 82.7661 375.228 82.807 375.443 82.807C375.704 82.807 375.927 82.7327 376.113 82.5841C376.307 82.4429 376.489 82.1903 376.66 81.8263L377.04 80.9682L377.129 80.8456L379.541 75.4183H380.322L377.386 81.9711C377.222 82.35 377.04 82.6509 376.839 82.8738C376.645 83.0967 376.433 83.2527 376.203 83.3419C375.972 83.4385 375.715 83.4868 375.432 83.4868ZM376.995 81.4362L374.293 75.4183H375.12L377.509 80.7898L376.995 81.4362ZM383.277 81.2691L386.85 73.4681H387.665L391.238 81.2691H390.367L387.085 73.9473H387.42L384.137 81.2691H383.277ZM384.684 79.1851L384.93 78.5164H389.474L389.719 79.1851H384.684ZM392.531 81.2691V73.4681H393.357V81.2691H392.531ZM395.811 81.3248C395.647 81.3248 395.505 81.2653 395.386 81.1465C395.275 81.0276 395.219 80.8827 395.219 80.7118C395.219 80.5335 395.275 80.3887 395.386 80.2772C395.505 80.1658 395.647 80.1101 395.811 80.1101C395.974 80.1101 396.112 80.1658 396.224 80.2772C396.343 80.3887 396.402 80.5335 396.402 80.7118C396.402 80.8827 396.343 81.0276 396.224 81.1465C396.112 81.2653 395.974 81.3248 395.811 81.3248Z"
        fill="#1E1E1E" />
    <path
        d="M53 20.6136C53 14.7519 57.7606 10 63.6329 10H128.228C134.1 10 138.861 14.7519 138.861 20.6136V85.0912C138.861 90.9528 134.1 95.7048 128.228 95.7048H63.6329C57.7606 95.7048 53 90.9528 53 85.0912V20.6136Z"
        fill="#0F172A" />
    <path
        d="M68.4177 75.539C68.9493 73.3279 69.6583 70.8735 70.5443 68.1758C71.4746 65.4341 72.5159 62.5817 73.6677 59.6186C74.8639 56.6556 76.0822 53.7148 77.3227 50.7961C78.5633 47.8773 79.7595 45.0912 80.9114 42.4378C82.0632 39.7401 83.3923 37.0204 84.8987 34.2786C85.2089 33.748 85.4747 33.2615 85.6962 32.8193C85.962 32.377 86.2499 32.0011 86.5601 31.6916C84.8322 31.7358 82.9715 31.9569 80.9778 32.3549C79.0285 32.7087 77.1454 33.2173 75.3291 33.8806C73.5568 34.544 72.0284 35.3179 70.7436 36.2024C69.503 37.0867 68.7056 38.0597 68.3512 39.1211C68.3068 39.2538 68.2183 39.3201 68.0854 39.3201C67.6867 39.3201 67.4873 39.0104 67.4873 38.3914C67.4873 38.2587 67.5317 38.0597 67.6202 37.7944C68.019 36.6447 68.5062 35.6274 69.0822 34.743C69.7024 33.8585 70.3228 33.1067 70.943 32.4876C72.405 30.984 74.0444 30.0774 75.8607 29.7679C77.6771 29.4141 79.6043 29.2372 81.6424 29.2372H98.4557C101.513 29.2372 103.949 29.7015 105.766 30.6302C107.627 31.5589 108.956 32.7972 109.753 34.345C110.551 35.8486 110.861 37.4627 110.684 39.1874C110.373 42.6812 109.133 45.5776 106.962 47.8773C104.835 50.1327 102.332 51.8131 99.4525 52.9188C97.4588 53.6705 95.1993 54.2898 92.674 54.7762C90.1487 55.2185 87.6898 55.4395 85.2974 55.4395C84.7658 55.4395 84.2341 55.4395 83.7025 55.4395C83.2152 55.3952 82.7277 55.3511 82.2405 55.3068C81.6644 56.7219 81.0443 58.3139 80.3797 60.083C79.7595 61.8077 79.1614 63.5544 78.5854 65.3234C78.0538 67.0924 77.6106 68.7508 77.2563 70.2985C76.9019 71.8022 76.7246 73.0626 76.7246 74.0796C76.7246 74.743 76.8132 75.2294 76.9905 75.539H68.4177ZM82.6392 54.2455C84.6773 54.2898 86.8038 54.1128 89.0189 53.7148C91.2341 53.2725 93.3606 52.5651 95.3987 51.5921C97.4368 50.575 99.1646 49.2704 100.582 47.6783C101.601 46.5286 102.399 45.2239 102.975 43.7645C103.551 42.2609 103.839 40.8015 103.839 39.3864C103.839 37.5734 103.373 35.937 102.443 34.4776C101.513 33.0183 100.029 32.0675 97.9905 31.6252C97.4588 31.4926 96.9272 31.4041 96.3955 31.3599C95.8639 31.3157 95.2878 31.2715 94.6677 31.2272C93.6929 32.4213 92.6961 33.8806 91.6772 35.6053C90.6583 37.3301 89.6614 39.1431 88.6867 41.0448C87.7563 42.9022 86.8703 44.7153 86.0284 46.4843C85.231 48.209 84.5664 49.7127 84.0348 50.9951L82.6392 54.2455ZM115.322 74.6103C113.284 75.6717 111.135 76.2024 108.876 76.2024C106.971 76.2024 105.199 75.738 103.559 74.8093C101.92 73.8806 100.812 72.3992 100.236 70.3649C99.9706 69.4362 99.8377 68.4632 99.8377 67.4461C99.8377 65.7657 100.126 64.041 100.702 62.272C101.322 60.4589 102.119 58.8006 103.094 57.2969C104.6 54.9531 106.506 53.0071 108.809 51.4594C111.113 49.9117 113.66 49.1377 116.452 49.1377C118.534 49.1377 120.151 49.6684 121.303 50.7297C122.455 51.7911 123.031 53.0294 123.031 54.4445C123.031 56.1249 122.455 57.6065 121.303 58.8889C120.195 60.1273 118.733 61.078 116.917 61.7413C116.031 62.051 115.078 62.294 114.059 62.471C113.085 62.6037 112.154 62.67 111.268 62.67C109.452 62.67 108.056 62.4267 107.081 61.9403C106.24 64.1074 105.819 66.0974 105.819 67.9105C105.819 69.5468 106.195 70.8956 106.948 71.9569C107.702 72.974 108.898 73.4826 110.537 73.4826C111.911 73.4826 113.262 73.1066 114.591 72.3549C115.964 71.6032 117.227 70.6745 118.379 69.5689C119.575 68.4632 120.572 67.4018 121.369 66.3848C121.99 65.6331 122.521 64.9254 122.964 64.2621C123.407 63.5987 123.873 62.847 124.36 62.0067C124.847 61.1223 125.423 60.0386 126.088 58.7563C126.265 58.4466 126.42 58.2919 126.553 58.2919C126.819 58.2919 126.952 58.6456 126.952 59.3533C126.952 59.7513 126.885 60.1936 126.752 60.68C126.664 61.1223 126.486 61.5866 126.221 62.073C125.6 63.1787 124.847 64.3947 123.961 65.7214C123.119 67.0038 122.256 68.2422 121.369 69.4362C120.572 70.4975 119.664 71.4705 118.645 72.3549C117.626 73.2393 116.518 73.9913 115.322 74.6103ZM109.274 60.481C109.496 60.6136 109.74 60.702 110.005 60.7463C110.271 60.7906 110.537 60.8126 110.803 60.8126C111.689 60.8126 112.575 60.6136 113.461 60.2156C114.347 59.7733 115.1 59.3312 115.721 58.8889C116.74 58.1813 117.604 57.3412 118.312 56.3682C119.021 55.3952 119.42 54.2898 119.509 53.0514C119.553 52.5208 119.42 52.0784 119.11 51.7247C118.844 51.3267 118.357 51.1277 117.648 51.1277C117.293 51.1277 116.85 51.1941 116.319 51.3267C115.61 51.5037 114.901 51.8354 114.192 52.3218C113.483 52.8081 112.797 53.3831 112.132 54.0465C111.911 54.2675 111.512 54.7098 110.936 55.3732C110.404 55.9922 109.895 56.6999 109.407 57.4959C108.92 58.2476 108.676 58.9109 108.676 59.4859C108.676 59.9723 108.876 60.304 109.274 60.481Z"
        fill="white" />
</svg>