<svg width="344" height="86" viewBox="0 0 344 86" fill="none" xmlns="http://www.w3.org/2000/svg">
    <path
        d="M115.696 53.8922V15.8159H131.772C134.17 15.8159 136.349 16.3599 138.311 17.4478C140.273 18.4993 141.835 19.9863 142.997 21.9081C144.16 23.83 144.741 26.0785 144.741 28.6531C144.741 31.1189 144.16 33.331 142.997 35.2892C141.871 37.2111 140.327 38.7161 138.366 39.804C136.404 40.8919 134.17 41.4358 131.663 41.4358H120.928V53.8922H115.696ZM120.928 36.8123H131.063C132.626 36.8123 134.042 36.5039 135.314 35.8876C136.622 35.2348 137.639 34.2921 138.366 33.059C139.128 31.826 139.51 30.3574 139.51 28.6531C139.51 26.9124 139.128 25.4438 138.366 24.2471C137.603 23.0141 136.585 22.0713 135.314 21.4186C134.042 20.7658 132.644 20.4395 131.118 20.4395H120.928V36.8123ZM163.918 53.8922C160.866 53.8922 158.16 53.3302 155.798 52.206C153.437 51.0456 151.584 49.4318 150.24 47.3648C148.932 45.2615 148.278 42.8137 148.278 40.0216C148.278 37.2655 148.842 34.7997 149.968 32.6239C151.094 30.4117 152.656 28.6711 154.654 27.402C156.652 26.1329 158.977 25.4982 161.629 25.4982C164.499 25.4982 166.879 26.1146 168.768 27.3476C170.693 28.5806 172.128 30.2486 173.073 32.3519C174.018 34.4189 174.49 36.7398 174.49 39.3144C174.49 39.7132 174.472 40.1304 174.435 40.5655C174.435 41.0007 174.399 41.3814 174.326 41.7078H153.619C153.8 43.4121 154.363 44.8627 155.308 46.0594C156.253 47.2197 157.452 48.1083 158.904 48.7247C160.394 49.305 162.029 49.595 163.809 49.595H171.057V53.8922H163.918ZM153.564 38.1721H169.422C169.422 37.4831 169.349 36.7579 169.204 35.9964C169.059 35.1985 168.804 34.437 168.441 33.7118C168.078 32.9503 167.587 32.2795 166.97 31.6992C166.388 31.0828 165.644 30.5932 164.735 30.2305C163.863 29.8678 162.828 29.6866 161.629 29.6866C160.358 29.6866 159.231 29.9405 158.251 30.4481C157.306 30.9196 156.489 31.5723 155.798 32.4063C155.108 33.2042 154.581 34.1106 154.218 35.126C153.855 36.1415 153.637 37.1567 153.564 38.1721ZM180.882 53.8922V37.8458C180.882 35.38 181.427 33.2222 182.517 31.3728C183.644 29.5234 185.187 28.0911 187.149 27.0756C189.111 26.0241 191.345 25.4982 193.852 25.4982C196.395 25.4982 198.629 26.0241 200.555 27.0756C202.516 28.0911 204.042 29.5234 205.132 31.3728C206.258 33.2222 206.821 35.38 206.821 37.8458V53.8922H201.808V37.9002C201.808 36.232 201.427 34.7997 200.664 33.603C199.937 32.37 198.956 31.4272 197.721 30.7745C196.522 30.1217 195.233 29.7954 193.852 29.7954C192.472 29.7954 191.164 30.1217 189.928 30.7745C188.73 31.4272 187.749 32.37 186.986 33.603C186.259 34.7997 185.896 36.232 185.896 37.9002V53.8922H180.882ZM214.4 53.8922V49.595H227.697C228.568 49.595 229.313 49.4138 229.931 49.0511C230.585 48.6523 231.075 48.1444 231.402 47.528C231.729 46.9116 231.893 46.2589 231.893 45.5698C231.893 44.9171 231.747 44.3187 231.457 43.7748C231.166 43.1945 230.712 42.7413 230.094 42.4149C229.513 42.0522 228.804 41.871 227.969 41.871H222.356C220.576 41.871 219.014 41.581 217.67 41.0007C216.362 40.3843 215.326 39.4957 214.564 38.3353C213.837 37.175 213.474 35.7607 213.474 34.0925C213.474 32.6783 213.819 31.3728 214.509 30.1761C215.199 28.9794 216.162 28.0184 217.397 27.2932C218.632 26.5317 220.049 26.1509 221.648 26.1509H234.454V30.4481H222.138C221.012 30.4481 220.122 30.7925 219.468 31.4816C218.814 32.1707 218.487 32.9866 218.487 33.9294C218.487 34.836 218.814 35.6336 219.468 36.3227C220.158 36.9755 221.121 37.3018 222.356 37.3018H227.697C229.694 37.3018 231.366 37.6282 232.71 38.2809C234.09 38.8973 235.126 39.804 235.816 41.0007C236.543 42.1974 236.906 43.666 236.906 45.4066C236.906 46.8933 236.543 48.2896 235.816 49.595C235.089 50.8641 234.072 51.8976 232.764 52.6955C231.493 53.4934 230.003 53.8922 228.296 53.8922H214.4ZM243.518 53.8922V26.1509H248.586V53.8922H243.518ZM246.079 21.7449C245.171 21.7449 244.372 21.4186 243.682 20.7658C243.028 20.0768 242.701 19.2791 242.701 18.3725C242.701 17.4658 243.028 16.6862 243.682 16.0335C244.372 15.3444 245.171 15 246.079 15C246.988 15 247.769 15.3444 248.423 16.0335C249.113 16.6862 249.458 17.4658 249.458 18.3725C249.458 19.2791 249.113 20.0768 248.423 20.7658C247.769 21.4186 246.988 21.7449 246.079 21.7449ZM270.617 53.8922C267.565 53.8922 264.859 53.3302 262.497 52.206C260.136 51.0456 258.283 49.4318 256.939 47.3648C255.631 45.2615 254.977 42.8137 254.977 40.0216C254.977 37.2655 255.54 34.7997 256.667 32.6239C257.793 30.4117 259.355 28.6711 261.353 27.402C263.351 26.1329 265.676 25.4982 268.328 25.4982C271.198 25.4982 273.578 26.1146 275.467 27.3476C277.392 28.5806 278.828 30.2486 279.772 32.3519C280.716 34.4189 281.189 36.7398 281.189 39.3144C281.189 39.7132 281.171 40.1304 281.134 40.5655C281.134 41.0007 281.098 41.3814 281.025 41.7078H260.318C260.499 43.4121 261.063 44.8627 262.007 46.0594C262.952 47.2197 264.15 48.1083 265.604 48.7247C267.093 49.305 268.728 49.595 270.508 49.595H277.756V53.8922H270.617ZM260.263 38.1721H276.121C276.121 37.4831 276.048 36.7579 275.903 35.9964C275.758 35.1985 275.503 34.437 275.14 33.7118C274.777 32.9503 274.286 32.2795 273.669 31.6992C273.087 31.0828 272.343 30.5932 271.434 30.2305C270.563 29.8678 269.527 29.6866 268.328 29.6866C267.057 29.6866 265.931 29.9405 264.95 30.4481C264.005 30.9196 263.188 31.5723 262.497 32.4063C261.807 33.2042 261.281 34.1106 260.917 35.126C260.554 36.1415 260.336 37.1567 260.263 38.1721ZM298.766 54.545C297.53 54.545 296.404 54.2005 295.387 53.5114C294.406 52.7863 293.68 51.7708 293.207 50.4654L284.161 26.1509H289.665L297.73 48.6159C297.876 48.9786 298.039 49.2323 298.221 49.3774C298.402 49.5226 298.602 49.595 298.82 49.595C299.074 49.595 299.274 49.5226 299.419 49.3774C299.601 49.2323 299.765 48.9786 299.91 48.6159L308.029 26.1509H313.424L304.378 50.4654C303.87 51.7708 303.125 52.7863 302.144 53.5114C301.163 54.2005 300.037 54.545 298.766 54.545ZM331.55 53.8922C328.498 53.8922 325.792 53.3302 323.43 52.206C321.069 51.0456 319.216 49.4318 317.872 47.3648C316.564 45.2615 315.91 42.8137 315.91 40.0216C315.91 37.2655 316.473 34.7997 317.599 32.6239C318.726 30.4117 320.288 28.6711 322.286 27.402C324.284 26.1329 326.609 25.4982 329.261 25.4982C332.131 25.4982 334.511 26.1146 336.4 27.3476C338.325 28.5806 339.76 30.2486 340.705 32.3519C341.649 34.4189 342.122 36.7398 342.122 39.3144C342.122 39.7132 342.103 40.1304 342.067 40.5655C342.067 41.0007 342.031 41.3814 341.958 41.7078H321.25C321.432 43.4121 321.995 44.8627 322.94 46.0594C323.884 47.2197 325.083 48.1083 326.536 48.7247C328.026 49.305 329.661 49.595 331.441 49.595H338.688V53.8922H331.55ZM321.196 38.1721H337.054C337.054 37.4831 336.981 36.7579 336.836 35.9964C336.69 35.1985 336.436 34.437 336.073 33.7118C335.71 32.9503 335.219 32.2795 334.601 31.6992C334.02 31.0828 333.275 30.5932 332.367 30.2305C331.495 29.8678 330.46 29.6866 329.261 29.6866C327.99 29.6866 326.863 29.9405 325.882 30.4481C324.938 30.9196 324.121 31.5723 323.43 32.4063C322.74 33.2042 322.213 34.1106 321.85 35.126C321.487 36.1415 321.269 37.1567 321.196 38.1721Z"
        fill="#1E1E1E" />
    <path
        d="M113.433 66.9562H117.564V67.6583H113.433V66.9562ZM113.522 70.5558H118.223V71.2691H112.696V63.4681H118.055V64.1813H113.522V70.5558ZM119.997 71.2691V63H120.79V71.2691H119.997ZM125.485 71.3248C124.875 71.3248 124.339 71.1985 123.878 70.9459C123.416 70.6858 123.055 70.3329 122.795 69.8872C122.534 69.434 122.404 68.9176 122.404 68.3381C122.404 67.7586 122.527 67.246 122.772 66.8002C123.025 66.3544 123.368 66.0052 123.799 65.7526C124.239 65.4926 124.73 65.3626 125.273 65.3626C125.824 65.3626 126.311 65.4889 126.736 65.7415C127.167 65.9867 127.506 66.3359 127.752 66.7891C127.997 67.2348 128.12 67.7512 128.12 68.3381C128.12 68.3753 128.116 68.4161 128.109 68.4607C128.109 68.4978 128.109 68.5387 128.109 68.5833H123.007V67.9926H127.685L127.372 68.2267C127.372 67.8032 127.279 67.428 127.093 67.1011C126.914 66.7668 126.669 66.5067 126.356 66.321C126.043 66.1353 125.682 66.0424 125.273 66.0424C124.871 66.0424 124.51 66.1353 124.19 66.321C123.87 66.5067 123.621 66.7668 123.442 67.1011C123.263 67.4354 123.174 67.818 123.174 68.249V68.3715C123.174 68.8173 123.271 69.2111 123.464 69.5528C123.665 69.8872 123.941 70.1509 124.291 70.3441C124.648 70.5298 125.054 70.6227 125.508 70.6227C125.865 70.6227 126.196 70.5595 126.501 70.4332C126.814 70.3069 127.082 70.1138 127.305 69.8537L127.752 70.3664C127.491 70.6784 127.164 70.9162 126.769 71.0796C126.382 71.2431 125.954 71.3248 125.485 71.3248ZM131.132 71.2691L128.53 65.4183H129.357L131.746 70.8456H131.355L133.778 65.4183H134.559L131.947 71.2691H131.132ZM139.174 71.2691V69.9763L139.141 69.7646V67.6026C139.141 67.1048 138.999 66.7222 138.717 66.4547C138.441 66.1873 138.028 66.0535 137.477 66.0535C137.098 66.0535 136.737 66.1167 136.394 66.243C136.052 66.3693 135.762 66.5365 135.523 66.7445L135.166 66.1538C135.464 65.9012 135.821 65.7081 136.238 65.5743C136.655 65.4332 137.094 65.3626 137.555 65.3626C138.315 65.3626 138.899 65.552 139.308 65.931C139.725 66.3024 139.934 66.8708 139.934 67.636V71.2691H139.174ZM137.153 71.3248C136.714 71.3248 136.331 71.2542 136.004 71.113C135.683 70.9644 135.438 70.7638 135.267 70.5112C135.095 70.2512 135.01 69.954 135.01 69.6197C135.01 69.3151 135.081 69.0402 135.222 68.795C135.371 68.5424 135.609 68.3418 135.937 68.1932C136.271 68.0372 136.718 67.9592 137.276 67.9592H139.297V68.5499H137.299C136.733 68.5499 136.338 68.6501 136.115 68.8507C135.899 69.0513 135.791 69.3002 135.791 69.5974C135.791 69.9317 135.922 70.1992 136.182 70.3998C136.443 70.6004 136.807 70.7007 137.276 70.7007C137.723 70.7007 138.106 70.6004 138.426 70.3998C138.754 70.1918 138.992 69.8946 139.141 69.5083L139.319 70.0543C139.171 70.4407 138.91 70.749 138.538 70.9793C138.173 71.2096 137.712 71.3248 137.153 71.3248ZM143.94 71.3248C143.389 71.3248 142.965 71.1762 142.667 70.879C142.369 70.5818 142.22 70.1621 142.22 69.6197V64.1256H143.013V69.5751C143.013 69.9169 143.099 70.1806 143.27 70.3664C143.448 70.5521 143.702 70.645 144.029 70.645C144.379 70.645 144.669 70.5447 144.9 70.3441L145.179 70.9124C145.023 71.0536 144.833 71.1576 144.61 71.2245C144.394 71.2913 144.17 71.3248 143.94 71.3248ZM141.171 66.0758V65.4183H144.799V66.0758H141.171ZM148.904 71.3248C148.294 71.3248 147.758 71.1985 147.297 70.9459C146.835 70.6858 146.474 70.3329 146.214 69.8872C145.953 69.434 145.823 68.9176 145.823 68.3381C145.823 67.7586 145.946 67.246 146.192 66.8002C146.445 66.3544 146.787 66.0052 147.219 65.7526C147.658 65.4926 148.149 65.3626 148.692 65.3626C149.243 65.3626 149.731 65.4889 150.155 65.7415C150.587 65.9867 150.925 66.3359 151.171 66.7891C151.417 67.2348 151.539 67.7512 151.539 68.3381C151.539 68.3753 151.536 68.4161 151.528 68.4607C151.528 68.4978 151.528 68.5387 151.528 68.5833H146.426V67.9926H151.104L150.791 68.2267C150.791 67.8032 150.698 67.428 150.512 67.1011C150.334 66.7668 150.088 66.5067 149.775 66.321C149.463 66.1353 149.102 66.0424 148.692 66.0424C148.29 66.0424 147.929 66.1353 147.609 66.321C147.289 66.5067 147.04 66.7668 146.861 67.1011C146.683 67.4354 146.593 67.818 146.593 68.249V68.3715C146.593 68.8173 146.69 69.2111 146.884 69.5528C147.085 69.8872 147.36 70.1509 147.71 70.3441C148.067 70.5298 148.473 70.6227 148.927 70.6227C149.284 70.6227 149.615 70.5595 149.92 70.4332C150.233 70.3069 150.501 70.1138 150.724 69.8537L151.171 70.3664C150.91 70.6784 150.583 70.9162 150.188 71.0796C149.801 71.2431 149.373 71.3248 148.904 71.3248ZM158.107 71.2691V68.3715L158.297 68.8842L154.981 63.4681H155.863L158.777 68.2267H158.308L161.222 63.4681H162.048L158.732 68.8842L158.922 68.3715V71.2691H158.107ZM164.886 71.3248C164.32 71.3248 163.81 71.1985 163.356 70.9459C162.91 70.6858 162.556 70.3329 162.296 69.8872C162.035 69.434 161.905 68.9176 161.905 68.3381C161.905 67.7512 162.035 67.2348 162.296 66.7891C162.556 66.3433 162.91 65.9941 163.356 65.7415C163.803 65.4889 164.313 65.3626 164.886 65.3626C165.466 65.3626 165.98 65.4889 166.426 65.7415C166.88 65.9941 167.234 66.3433 167.487 66.7891C167.748 67.2348 167.878 67.7512 167.878 68.3381C167.878 68.9176 167.748 69.434 167.487 69.8872C167.234 70.3329 166.88 70.6858 166.426 70.9459C165.972 71.1985 165.459 71.3248 164.886 71.3248ZM164.886 70.6227C165.31 70.6227 165.686 70.5298 166.013 70.3441C166.341 70.1509 166.598 69.8834 166.784 69.5417C166.977 69.1925 167.074 68.7913 167.074 68.3381C167.074 67.8775 166.977 67.4763 166.784 67.1345C166.598 66.7928 166.341 66.529 166.013 66.3433C165.686 66.1501 165.314 66.0535 164.897 66.0535C164.48 66.0535 164.108 66.1501 163.78 66.3433C163.453 66.529 163.192 66.7928 162.999 67.1345C162.805 67.4763 162.709 67.8775 162.709 68.3381C162.709 68.7913 162.805 69.1925 162.999 69.5417C163.192 69.8834 163.453 70.1509 163.78 70.3441C164.108 70.5298 164.476 70.6227 164.886 70.6227ZM171.919 71.3248C171.42 71.3248 170.985 71.2319 170.613 71.0462C170.24 70.8604 169.95 70.5818 169.742 70.2104C169.541 69.8389 169.44 69.3745 169.44 68.8173V65.4183H170.233V68.7282C170.233 69.3522 170.386 69.824 170.691 70.1435C171.003 70.4555 171.439 70.6115 171.997 70.6115C172.406 70.6115 172.76 70.5298 173.058 70.3664C173.363 70.1955 173.594 69.9503 173.75 69.6308C173.914 69.3114 173.996 68.9288 173.996 68.483V65.4183H174.788V71.2691H174.029V69.6643L174.152 69.954C173.966 70.3849 173.675 70.723 173.281 70.9682C172.894 71.2059 172.44 71.3248 171.919 71.3248ZM176.997 71.2691V65.4183H177.757V67.0119L177.678 66.7333C177.842 66.2876 178.118 65.9495 178.505 65.7192C178.892 65.4815 179.372 65.3626 179.945 65.3626V66.1315C179.915 66.1315 179.885 66.1315 179.856 66.1315C179.826 66.1241 179.796 66.1204 179.766 66.1204C179.148 66.1204 178.665 66.3098 178.315 66.6888C177.965 67.0602 177.79 67.5914 177.79 68.2824V71.2691H176.997ZM186.086 71.2691V64.1813H183.34V63.4681H189.659V64.1813H186.913V71.2691H186.086ZM193.804 65.3626C194.28 65.3626 194.697 65.4555 195.054 65.6412C195.419 65.8195 195.702 66.0944 195.902 66.4659C196.111 66.8373 196.215 67.3054 196.215 67.8701V71.2691H195.422V67.9481C195.422 67.3314 195.266 66.8671 194.953 66.555C194.648 66.2356 194.217 66.0758 193.658 66.0758C193.242 66.0758 192.877 66.1613 192.564 66.3321C192.259 66.4956 192.021 66.7371 191.85 67.0565C191.686 67.3686 191.604 67.7475 191.604 68.1932V71.2691H190.811V63H191.604V67.0231L191.448 66.7222C191.634 66.2987 191.932 65.9681 192.341 65.7303C192.75 65.4852 193.238 65.3626 193.804 65.3626ZM200.746 71.3248C200.18 71.3248 199.67 71.1985 199.216 70.9459C198.769 70.6858 198.416 70.3329 198.155 69.8872C197.895 69.434 197.765 68.9176 197.765 68.3381C197.765 67.7512 197.895 67.2348 198.155 66.7891C198.416 66.3433 198.769 65.9941 199.216 65.7415C199.663 65.4889 200.172 65.3626 200.746 65.3626C201.326 65.3626 201.84 65.4889 202.286 65.7415C202.74 65.9941 203.094 66.3433 203.347 66.7891C203.607 67.2348 203.738 67.7512 203.738 68.3381C203.738 68.9176 203.607 69.434 203.347 69.8872C203.094 70.3329 202.74 70.6858 202.286 70.9459C201.832 71.1985 201.319 71.3248 200.746 71.3248ZM200.746 70.6227C201.17 70.6227 201.546 70.5298 201.873 70.3441C202.201 70.1509 202.457 69.8834 202.643 69.5417C202.837 69.1925 202.934 68.7913 202.934 68.3381C202.934 67.8775 202.837 67.4763 202.643 67.1345C202.457 66.7928 202.201 66.529 201.873 66.3433C201.546 66.1501 201.173 66.0535 200.757 66.0535C200.34 66.0535 199.968 66.1501 199.64 66.3433C199.313 66.529 199.052 66.7928 198.859 67.1345C198.665 67.4763 198.568 67.8775 198.568 68.3381C198.568 68.7913 198.665 69.1925 198.859 69.5417C199.052 69.8834 199.313 70.1509 199.64 70.3441C199.968 70.5298 200.336 70.6227 200.746 70.6227ZM207.779 71.3248C207.28 71.3248 206.845 71.2319 206.472 71.0462C206.1 70.8604 205.81 70.5818 205.602 70.2104C205.401 69.8389 205.3 69.3745 205.3 68.8173V65.4183H206.093V68.7282C206.093 69.3522 206.245 69.824 206.551 70.1435C206.863 70.4555 207.299 70.6115 207.857 70.6115C208.266 70.6115 208.62 70.5298 208.917 70.3664C209.223 70.1955 209.453 69.9503 209.61 69.6308C209.773 69.3114 209.855 68.9288 209.855 68.483V65.4183H210.648V71.2691H209.889V69.6643L210.012 69.954C209.825 70.3849 209.535 70.723 209.141 70.9682C208.754 71.2059 208.3 71.3248 207.779 71.3248ZM215.358 73.4868C214.822 73.4868 214.309 73.4088 213.817 73.2527C213.326 73.0967 212.928 72.8738 212.623 72.5841L213.025 71.9823C213.3 72.2275 213.639 72.4206 214.041 72.5618C214.45 72.7104 214.882 72.7847 215.336 72.7847C216.08 72.7847 216.627 72.6101 216.977 72.2609C217.327 71.9191 217.502 71.3842 217.502 70.6561V69.1962L217.613 68.1932L217.535 67.1902V65.4183H218.294V70.5558C218.294 71.5662 218.045 72.3055 217.546 72.7735C217.055 73.249 216.326 73.4868 215.358 73.4868ZM215.213 71.0462C214.655 71.0462 214.152 70.9273 213.706 70.6895C213.259 70.4444 212.906 70.1063 212.645 69.6754C212.392 69.2445 212.265 68.7505 212.265 68.1932C212.265 67.636 212.392 67.1457 212.645 66.7222C212.906 66.2913 213.259 65.9569 213.706 65.7192C214.152 65.4815 214.655 65.3626 215.213 65.3626C215.734 65.3626 216.203 65.4703 216.62 65.6858C217.036 65.9012 217.368 66.2207 217.613 66.6442C217.859 67.0677 217.982 67.584 217.982 68.1932C217.982 68.8025 217.859 69.3188 217.613 69.7423C217.368 70.1658 217.036 70.489 216.62 70.7118C216.203 70.9347 215.734 71.0462 215.213 71.0462ZM215.291 70.3441C215.723 70.3441 216.106 70.2549 216.441 70.0766C216.776 69.8909 217.04 69.6383 217.234 69.3188C217.427 68.9919 217.524 68.6167 217.524 68.1932C217.524 67.7698 217.427 67.3983 217.234 67.0788C217.04 66.7593 216.776 66.5104 216.441 66.3321C216.106 66.1464 215.723 66.0535 215.291 66.0535C214.867 66.0535 214.483 66.1464 214.141 66.3321C213.806 66.5104 213.542 66.7593 213.348 67.0788C213.162 67.3983 213.069 67.7698 213.069 68.1932C213.069 68.6167 213.162 68.9919 213.348 69.3188C213.542 69.6383 213.806 69.8909 214.141 70.0766C214.483 70.2549 214.867 70.3441 215.291 70.3441ZM223.492 65.3626C223.969 65.3626 224.385 65.4555 224.743 65.6412C225.107 65.8195 225.39 66.0944 225.591 66.4659C225.8 66.8373 225.904 67.3054 225.904 67.8701V71.2691H225.111V67.9481C225.111 67.3314 224.955 66.8671 224.642 66.555C224.337 66.2356 223.905 66.0758 223.347 66.0758C222.93 66.0758 222.566 66.1613 222.253 66.3321C221.948 66.4956 221.71 66.7371 221.538 67.0565C221.375 67.3686 221.293 67.7475 221.293 68.1932V71.2691H220.5V63H221.293V67.0231L221.137 66.7222C221.323 66.2987 221.62 65.9681 222.03 65.7303C222.439 65.4852 222.927 65.3626 223.492 65.3626ZM229.898 71.3248C229.347 71.3248 228.923 71.1762 228.625 70.879C228.328 70.5818 228.179 70.1621 228.179 69.6197V64.1256H228.971V69.5751C228.971 69.9169 229.057 70.1806 229.228 70.3664C229.407 70.5521 229.66 70.645 229.987 70.645C230.337 70.645 230.627 70.5447 230.858 70.3441L231.137 70.9124C230.981 71.0536 230.791 71.1576 230.568 71.2245C230.352 71.2913 230.129 71.3248 229.898 71.3248ZM227.129 66.0758V65.4183H230.758V66.0758H227.129ZM234.155 71.3248C233.671 71.3248 233.213 71.2579 232.781 71.1242C232.35 70.983 232.011 70.8084 231.765 70.6004L232.123 69.9763C232.361 70.1546 232.666 70.3107 233.038 70.4444C233.41 70.5707 233.801 70.6338 234.21 70.6338C234.769 70.6338 235.171 70.5484 235.416 70.3775C235.662 70.1992 235.785 69.9652 235.785 69.6754C235.785 69.46 235.714 69.2928 235.573 69.1739C235.439 69.0476 235.26 68.9548 235.037 68.8953C234.813 68.8285 234.564 68.7727 234.289 68.7282C234.013 68.6836 233.738 68.6316 233.462 68.5721C233.194 68.5127 232.949 68.4273 232.726 68.3158C232.502 68.1969 232.32 68.0372 232.179 67.8366C232.045 67.636 231.978 67.3686 231.978 67.0342C231.978 66.7148 232.067 66.4287 232.246 66.1761C232.424 65.9235 232.685 65.7266 233.027 65.5855C233.377 65.4369 233.801 65.3626 234.3 65.3626C234.679 65.3626 235.059 65.4146 235.439 65.5186C235.818 65.6152 236.131 65.7452 236.376 65.9087L236.03 66.5439C235.77 66.3656 235.491 66.2393 235.193 66.165C234.895 66.0832 234.598 66.0424 234.3 66.0424C233.771 66.0424 233.381 66.1353 233.128 66.321C232.882 66.4993 232.759 66.7296 232.759 67.0119C232.759 67.2348 232.826 67.4094 232.96 67.5357C233.101 67.662 233.284 67.7623 233.507 67.8366C233.738 67.9035 233.987 67.9592 234.255 68.0038C234.531 68.0484 234.802 68.1041 235.07 68.1709C235.346 68.2304 235.595 68.3158 235.818 68.4273C236.049 68.5313 236.231 68.6836 236.365 68.8842C236.507 69.0774 236.577 69.3337 236.577 69.6531C236.577 69.9949 236.481 70.2921 236.287 70.5447C236.101 70.7899 235.826 70.983 235.461 71.1242C235.104 71.2579 234.668 71.3248 234.155 71.3248ZM237.552 72.8961L238.043 70.8344L238.132 71.3136C237.961 71.3136 237.816 71.2579 237.697 71.1465C237.585 71.035 237.53 70.8902 237.53 70.7118C237.53 70.5335 237.585 70.3887 237.697 70.2772C237.816 70.1658 237.958 70.1101 238.121 70.1101C238.292 70.1101 238.43 70.1695 238.534 70.2884C238.646 70.4072 238.702 70.5484 238.702 70.7118C238.702 70.7713 238.698 70.8307 238.691 70.8902C238.683 70.9496 238.668 71.0165 238.646 71.0907C238.624 71.165 238.594 71.2542 238.557 71.3582L238.088 72.8961H237.552ZM244.224 66.9562H248.355V67.6583H244.224V66.9562ZM244.313 70.5558H249.014V71.2691H243.487V63.4681H248.846V64.1813H244.313V70.5558ZM258.112 65.3626C258.589 65.3626 259.002 65.4555 259.351 65.6412C259.709 65.8195 259.984 66.0944 260.178 66.4659C260.379 66.8373 260.479 67.3054 260.479 67.8701V71.2691H259.686V67.9481C259.686 67.3314 259.538 66.8671 259.24 66.555C258.95 66.2356 258.536 66.0758 258.001 66.0758C257.599 66.0758 257.249 66.1613 256.951 66.3321C256.661 66.4956 256.434 66.7371 256.27 67.0565C256.114 67.3686 256.036 67.7475 256.036 68.1932V71.2691H255.243V67.9481C255.243 67.3314 255.094 66.8671 254.796 66.555C254.499 66.2356 254.082 66.0758 253.546 66.0758C253.151 66.0758 252.805 66.1613 252.508 66.3321C252.21 66.4956 251.979 66.7371 251.815 67.0565C251.659 67.3686 251.581 67.7475 251.581 68.1932V71.2691H250.788V65.4183H251.547V67.0008L251.425 66.7222C251.603 66.2987 251.89 65.9681 252.284 65.7303C252.686 65.4852 253.159 65.3626 253.702 65.3626C254.275 65.3626 254.763 65.5075 255.165 65.7972C255.567 66.0795 255.827 66.5067 255.946 67.0788L255.634 66.9562C255.805 66.4807 256.106 66.0981 256.538 65.8084C256.977 65.5112 257.502 65.3626 258.112 65.3626ZM265.654 71.3248C265.148 71.3248 264.69 71.2096 264.281 70.9793C263.872 70.7416 263.544 70.4035 263.299 69.9652C263.06 69.5194 262.941 68.977 262.941 68.3381C262.941 67.6992 263.06 67.1605 263.299 66.7222C263.537 66.2764 263.861 65.9384 264.27 65.7081C264.679 65.4777 265.141 65.3626 265.654 65.3626C266.213 65.3626 266.711 65.4889 267.15 65.7415C267.597 65.9867 267.947 66.3359 268.2 66.7891C268.453 67.2348 268.579 67.7512 268.579 68.3381C268.579 68.9325 268.453 69.4525 268.2 69.8983C267.947 70.3441 267.597 70.6933 267.15 70.9459C266.711 71.1985 266.213 71.3248 265.654 71.3248ZM262.629 73.431V65.4183H263.388V67.1791L263.31 68.3492L263.421 69.5305V73.431H262.629ZM265.599 70.6227C266.015 70.6227 266.388 70.5298 266.715 70.3441C267.042 70.1509 267.303 69.8834 267.497 69.5417C267.69 69.1925 267.787 68.7913 267.787 68.3381C267.787 67.8849 267.69 67.4874 267.497 67.1457C267.303 66.8039 267.042 66.5364 266.715 66.3433C266.388 66.1501 266.015 66.0535 265.599 66.0535C265.182 66.0535 264.806 66.1501 264.471 66.3433C264.143 66.5364 263.883 66.8039 263.689 67.1457C263.503 67.4874 263.41 67.8849 263.41 68.3381C263.41 68.7913 263.503 69.1925 263.689 69.5417C263.883 69.8834 264.143 70.1509 264.471 70.3441C264.806 70.5298 265.182 70.6227 265.599 70.6227ZM272.585 71.3248C272.019 71.3248 271.509 71.1985 271.055 70.9459C270.609 70.6858 270.255 70.3329 269.994 69.8872C269.734 69.434 269.604 68.9176 269.604 68.3381C269.604 67.7512 269.734 67.2348 269.994 66.7891C270.255 66.3433 270.609 65.9941 271.055 65.7415C271.502 65.4889 272.012 65.3626 272.585 65.3626C273.165 65.3626 273.679 65.4889 274.125 65.7415C274.579 65.9941 274.933 66.3433 275.186 66.7891C275.446 67.2348 275.577 67.7512 275.577 68.3381C275.577 68.9176 275.446 69.434 275.186 69.8872C274.933 70.3329 274.579 70.6858 274.125 70.9459C273.671 71.1985 273.158 71.3248 272.585 71.3248ZM272.585 70.6227C273.009 70.6227 273.385 70.5298 273.712 70.3441C274.04 70.1509 274.297 69.8834 274.483 69.5417C274.676 69.1925 274.773 68.7913 274.773 68.3381C274.773 67.8775 274.676 67.4763 274.483 67.1345C274.297 66.7928 274.04 66.529 273.712 66.3433C273.385 66.1501 273.013 66.0535 272.596 66.0535C272.179 66.0535 271.807 66.1501 271.479 66.3433C271.152 66.529 270.891 66.7928 270.698 67.1345C270.504 67.4763 270.408 67.8775 270.408 68.3381C270.408 68.7913 270.504 69.1925 270.698 69.5417C270.891 69.8834 271.152 70.1509 271.479 70.3441C271.807 70.5298 272.175 70.6227 272.585 70.6227ZM278.226 71.2691L276.016 65.4183H276.775L278.784 70.8456H278.438L280.504 65.4183H281.185L283.228 70.8456H282.882L284.925 65.4183H285.651L283.429 71.2691H282.681L280.716 66.165H280.95L278.974 71.2691H278.226ZM289.17 71.3248C288.56 71.3248 288.024 71.1985 287.562 70.9459C287.101 70.6858 286.74 70.3329 286.479 69.8872C286.219 69.434 286.089 68.9176 286.089 68.3381C286.089 67.7586 286.212 67.246 286.457 66.8002C286.71 66.3544 287.053 66.0052 287.484 65.7526C287.923 65.4926 288.415 65.3626 288.958 65.3626C289.509 65.3626 289.996 65.4889 290.421 65.7415C290.852 65.9867 291.191 66.3359 291.437 66.7891C291.682 67.2348 291.805 67.7512 291.805 68.3381C291.805 68.3753 291.801 68.4161 291.794 68.4607C291.794 68.4978 291.794 68.5387 291.794 68.5833H286.692V67.9926H291.37L291.057 68.2267C291.057 67.8032 290.964 67.428 290.778 67.1011C290.599 66.7668 290.354 66.5067 290.041 66.321C289.728 66.1353 289.367 66.0424 288.958 66.0424C288.556 66.0424 288.195 66.1353 287.875 66.321C287.555 66.5067 287.306 66.7668 287.127 67.1011C286.948 67.4354 286.859 67.818 286.859 68.249V68.3715C286.859 68.8173 286.956 69.2111 287.149 69.5528C287.35 69.8872 287.626 70.1509 287.976 70.3441C288.333 70.5298 288.738 70.6227 289.192 70.6227C289.55 70.6227 289.881 70.5595 290.186 70.4332C290.499 70.3069 290.767 70.1138 290.99 69.8537L291.437 70.3664C291.176 70.6784 290.849 70.9162 290.454 71.0796C290.067 71.2431 289.639 71.3248 289.17 71.3248ZM293.418 71.2691V65.4183H294.178V67.0119L294.1 66.7333C294.263 66.2876 294.539 65.9495 294.926 65.7192C295.313 65.4815 295.793 65.3626 296.366 65.3626V66.1315C296.336 66.1315 296.306 66.1315 296.277 66.1315C296.247 66.1241 296.217 66.1204 296.187 66.1204C295.57 66.1204 295.086 66.3098 294.736 66.6888C294.386 67.0602 294.211 67.5914 294.211 68.2824V71.2691H293.418ZM300.247 71.3248C299.637 71.3248 299.101 71.1985 298.64 70.9459C298.178 70.6858 297.817 70.3329 297.557 69.8872C297.296 69.434 297.166 68.9176 297.166 68.3381C297.166 67.7586 297.289 67.246 297.535 66.8002C297.788 66.3544 298.13 66.0052 298.562 65.7526C299.001 65.4926 299.492 65.3626 300.035 65.3626C300.586 65.3626 301.074 65.4889 301.498 65.7415C301.93 65.9867 302.268 66.3359 302.514 66.7891C302.76 67.2348 302.882 67.7512 302.882 68.3381C302.882 68.3753 302.879 68.4161 302.871 68.4607C302.871 68.4978 302.871 68.5387 302.871 68.5833H297.769V67.9926H302.447L302.134 68.2267C302.134 67.8032 302.041 67.428 301.855 67.1011C301.677 66.7668 301.431 66.5067 301.118 66.321C300.806 66.1353 300.445 66.0424 300.035 66.0424C299.633 66.0424 299.272 66.1353 298.952 66.321C298.632 66.5067 298.383 66.7668 298.204 67.1011C298.026 67.4354 297.936 67.818 297.936 68.249V68.3715C297.936 68.8173 298.033 69.2111 298.227 69.5528C298.428 69.8872 298.703 70.1509 299.053 70.3441C299.41 70.5298 299.816 70.6227 300.27 70.6227C300.627 70.6227 300.958 70.5595 301.263 70.4332C301.576 70.3069 301.844 70.1138 302.067 69.8537L302.514 70.3664C302.253 70.6784 301.926 70.9162 301.531 71.0796C301.144 71.2431 300.716 71.3248 300.247 71.3248ZM306.829 71.3248C306.271 71.3248 305.769 71.1985 305.322 70.9459C304.883 70.6933 304.537 70.3441 304.284 69.8983C304.031 69.4451 303.904 68.925 303.904 68.3381C303.904 67.7437 304.031 67.2237 304.284 66.7779C304.537 66.3321 304.883 65.9867 305.322 65.7415C305.769 65.4889 306.271 65.3626 306.829 65.3626C307.343 65.3626 307.801 65.4777 308.202 65.7081C308.612 65.9384 308.936 66.2764 309.174 66.7222C309.419 67.1605 309.542 67.6992 309.542 68.3381C309.542 68.9696 309.423 69.5083 309.185 69.954C308.947 70.3998 308.623 70.7416 308.214 70.9793C307.812 71.2096 307.35 71.3248 306.829 71.3248ZM306.885 70.6227C307.302 70.6227 307.674 70.5298 308.002 70.3441C308.336 70.1509 308.597 69.8834 308.783 69.5417C308.977 69.1925 309.073 68.7913 309.073 68.3381C309.073 67.8775 308.977 67.4763 308.783 67.1345C308.597 66.7928 308.336 66.529 308.002 66.3433C307.674 66.1501 307.302 66.0535 306.885 66.0535C306.476 66.0535 306.107 66.1501 305.78 66.3433C305.452 66.529 305.192 66.7928 304.998 67.1345C304.805 67.4763 304.708 67.8775 304.708 68.3381C304.708 68.7913 304.805 69.1925 304.998 69.5417C305.192 69.8834 305.452 70.1509 305.78 70.3441C306.107 70.5298 306.476 70.6227 306.885 70.6227ZM309.096 71.2691V69.5083L309.174 68.327L309.062 67.1457V63H309.855V71.2691H309.096ZM318.01 71.3248C317.496 71.3248 317.035 71.2096 316.626 70.9793C316.216 70.7416 315.892 70.3998 315.654 69.954C315.416 69.5083 315.297 68.9696 315.297 68.3381C315.297 67.6992 315.416 67.1605 315.654 66.7222C315.9 66.2764 316.227 65.9384 316.637 65.7081C317.046 65.4777 317.504 65.3626 318.01 65.3626C318.568 65.3626 319.067 65.4889 319.506 65.7415C319.953 65.9867 320.302 66.3321 320.556 66.7779C320.809 67.2237 320.935 67.7437 320.935 68.3381C320.935 68.925 320.809 69.4451 320.556 69.8983C320.302 70.3441 319.953 70.6933 319.506 70.9459C319.067 71.1985 318.568 71.3248 318.01 71.3248ZM314.984 71.2691V63H315.777V67.1457L315.665 68.327L315.744 69.5083V71.2691H314.984ZM317.954 70.6227C318.371 70.6227 318.743 70.5298 319.071 70.3441C319.398 70.1509 319.659 69.8834 319.852 69.5417C320.046 69.1925 320.142 68.7913 320.142 68.3381C320.142 67.8775 320.046 67.4763 319.852 67.1345C319.659 66.7928 319.398 66.529 319.071 66.3433C318.743 66.1501 318.371 66.0535 317.954 66.0535C317.537 66.0535 317.162 66.1501 316.827 66.3433C316.499 66.529 316.239 66.7928 316.045 67.1345C315.859 67.4763 315.766 67.8775 315.766 68.3381C315.766 68.7913 315.859 69.1925 316.045 69.5417C316.239 69.8834 316.499 70.1509 316.827 70.3441C317.162 70.5298 317.537 70.6227 317.954 70.6227ZM322.432 73.4868C322.157 73.4868 321.893 73.4422 321.64 73.353C321.394 73.2639 321.182 73.1301 321.003 72.9518L321.372 72.3612C321.52 72.5024 321.681 72.6101 321.852 72.6844C322.03 72.7661 322.228 72.807 322.443 72.807C322.704 72.807 322.927 72.7327 323.113 72.5841C323.307 72.4429 323.489 72.1903 323.66 71.8263L324.04 70.9682L324.129 70.8456L326.541 65.4183H327.322L324.386 71.9711C324.222 72.35 324.04 72.6509 323.839 72.8738C323.645 73.0967 323.433 73.2527 323.203 73.3419C322.972 73.4385 322.715 73.4868 322.432 73.4868ZM323.995 71.4362L321.293 65.4183H322.12L324.509 70.7898L323.995 71.4362ZM330.277 71.2691L333.85 63.4681H334.665L338.238 71.2691H337.367L334.085 63.9473H334.42L331.137 71.2691H330.277ZM331.684 69.1851L331.93 68.5164H336.474L336.719 69.1851H331.684ZM339.531 71.2691V63.4681H340.357V71.2691H339.531ZM342.811 71.3248C342.647 71.3248 342.505 71.2653 342.386 71.1465C342.275 71.0276 342.219 70.8827 342.219 70.7118C342.219 70.5335 342.275 70.3887 342.386 70.2772C342.505 70.1658 342.647 70.1101 342.811 70.1101C342.974 70.1101 343.112 70.1658 343.224 70.2772C343.343 70.3887 343.402 70.5335 343.402 70.7118C343.402 70.8827 343.343 71.0276 343.224 71.1465C343.112 71.2653 342.974 71.3248 342.811 71.3248Z"
        fill="#1E1E1E" />
    <path
        d="M0 10.6136C0 4.75187 4.76062 0 10.6329 0H75.2278C81.1001 0 85.8608 4.75187 85.8608 10.6136V75.0912C85.8608 80.9528 81.1001 85.7048 75.2278 85.7048H10.6329C4.76062 85.7048 0 80.9528 0 75.0912V10.6136Z"
        fill="#0F172A" />
    <path
        d="M15.4177 65.539C15.9493 63.3279 16.6583 60.8735 17.5443 58.1758C18.4746 55.4341 19.5159 52.5817 20.6677 49.6186C21.8639 46.6556 23.0822 43.7148 24.3227 40.7961C25.5633 37.8773 26.7595 35.0912 27.9114 32.4378C29.0632 29.7401 30.3923 27.0204 31.8987 24.2786C32.2089 23.748 32.4747 23.2615 32.6962 22.8193C32.962 22.377 33.2499 22.0011 33.5601 21.6916C31.8322 21.7358 29.9715 21.9569 27.9778 22.3549C26.0285 22.7087 24.1454 23.2173 22.3291 23.8806C20.5568 24.544 19.0284 25.3179 17.7436 26.2024C16.503 27.0867 15.7056 28.0597 15.3512 29.1211C15.3068 29.2538 15.2183 29.3201 15.0854 29.3201C14.6867 29.3201 14.4873 29.0104 14.4873 28.3914C14.4873 28.2587 14.5317 28.0597 14.6202 27.7944C15.019 26.6447 15.5062 25.6274 16.0822 24.743C16.7024 23.8585 17.3228 23.1067 17.943 22.4876C19.405 20.984 21.0444 20.0774 22.8607 19.7679C24.6771 19.4141 26.6043 19.2372 28.6424 19.2372H45.4557C48.5126 19.2372 50.9494 19.7015 52.7658 20.6302C54.6265 21.5589 55.9557 22.7972 56.7531 24.345C57.5506 25.8486 57.8608 27.4627 57.6835 29.1874C57.3733 32.6812 56.133 35.5776 53.962 37.8773C51.8354 40.1327 49.3321 41.8131 46.4525 42.9188C44.4588 43.6705 42.1993 44.2898 39.674 44.7762C37.1487 45.2185 34.6898 45.4395 32.2974 45.4395C31.7658 45.4395 31.2341 45.4395 30.7025 45.4395C30.2152 45.3952 29.7277 45.3511 29.2405 45.3068C28.6644 46.7219 28.0443 48.3139 27.3797 50.083C26.7595 51.8077 26.1614 53.5544 25.5854 55.3234C25.0538 57.0924 24.6106 58.7508 24.2563 60.2985C23.9019 61.8022 23.7246 63.0626 23.7246 64.0796C23.7246 64.743 23.8132 65.2294 23.9905 65.539H15.4177ZM29.6392 44.2455C31.6773 44.2898 33.8038 44.1128 36.0189 43.7148C38.2341 43.2725 40.3606 42.5651 42.3987 41.5921C44.4368 40.575 46.1646 39.2703 47.5822 37.6783C48.6011 36.5286 49.3986 35.2239 49.9746 33.7645C50.5507 32.2609 50.8386 30.8015 50.8386 29.3864C50.8386 27.5734 50.3734 25.937 49.443 24.4776C48.5126 23.0183 47.0285 22.0675 44.9905 21.6252C44.4588 21.4926 43.9272 21.4041 43.3955 21.3599C42.8639 21.3157 42.2878 21.2715 41.6677 21.2272C40.6929 22.4213 39.6961 23.8806 38.6772 25.6053C37.6583 27.3301 36.6614 29.1431 35.6867 31.0448C34.7563 32.9022 33.8703 34.7153 33.0284 36.4843C32.231 38.209 31.5664 39.7127 31.0348 40.9951L29.6392 44.2455ZM62.3218 64.6103C60.284 65.6717 58.1351 66.2024 55.8756 66.2024C53.9708 66.2024 52.1985 65.738 50.5592 64.8093C48.9201 63.8806 47.8124 62.3992 47.2364 60.3649C46.9706 59.4362 46.8377 58.4632 46.8377 57.4461C46.8377 55.7657 47.1258 54.041 47.7016 52.272C48.322 50.4589 49.1195 48.8006 50.094 47.2969C51.6004 44.9531 53.5056 43.0071 55.8092 41.4594C58.1131 39.9117 60.6605 39.1377 63.4516 39.1377C65.534 39.1377 67.151 39.6684 68.3029 40.7297C69.4549 41.7911 70.0307 43.0294 70.0307 44.4445C70.0307 46.1249 69.4549 47.6065 68.3029 48.8889C67.1954 50.1273 65.7334 51.078 63.9168 51.7413C63.0308 52.051 62.0784 52.294 61.0592 52.471C60.0847 52.6037 59.1543 52.67 58.2681 52.67C56.4517 52.67 55.0561 52.4267 54.0813 51.9403C53.2397 54.1074 52.8187 56.0974 52.8187 57.9105C52.8187 59.5468 53.1954 60.8956 53.9484 61.9569C54.7018 62.974 55.898 63.4826 57.537 63.4826C58.9105 63.4826 60.2617 63.1066 61.5908 62.3549C62.9643 61.6032 64.227 60.6745 65.3788 59.5689C66.575 58.4632 67.5718 57.4018 68.3693 56.3848C68.9897 55.6331 69.5214 54.9254 69.9642 54.2621C70.4074 53.5987 70.8726 52.847 71.3598 52.0067C71.8473 51.1223 72.4231 50.0386 73.0877 48.7563C73.265 48.4466 73.4199 48.2919 73.5529 48.2919C73.8187 48.2919 73.9516 48.6456 73.9516 49.3533C73.9516 49.7513 73.8851 50.1936 73.7522 50.68C73.6637 51.1223 73.4864 51.5866 73.2206 52.073C72.6004 53.1787 71.8473 54.3947 70.9611 55.7214C70.1195 57.0038 69.2556 58.2422 68.3693 59.4362C67.5718 60.4975 66.6638 61.4706 65.6446 62.3549C64.6257 63.2393 63.5181 63.9913 62.3218 64.6103ZM56.2744 50.481C56.4961 50.6136 56.7396 50.702 57.0054 50.7463C57.2712 50.7906 57.537 50.8126 57.8029 50.8126C58.6891 50.8126 59.5751 50.6136 60.4611 50.2156C61.3473 49.7733 62.1004 49.3312 62.7206 48.8889C63.7397 48.1813 64.6037 47.3412 65.3123 46.3682C66.0213 45.3952 66.42 44.2898 66.5085 43.0514C66.5529 42.5208 66.42 42.0784 66.1098 41.7247C65.844 41.3267 65.3567 41.1277 64.6478 41.1277C64.2934 41.1277 63.8503 41.1941 63.3187 41.3267C62.61 41.5037 61.9011 41.8354 61.1921 42.3218C60.4834 42.8081 59.7965 43.3831 59.132 44.0465C58.9105 44.2675 58.5118 44.7098 57.9358 45.3732C57.4041 45.9922 56.8948 46.6999 56.4073 47.4959C55.92 48.2476 55.6763 48.9109 55.6763 49.4859C55.6763 49.9723 55.8756 50.304 56.2744 50.481Z"
        fill="white" />
</svg>