<svg width="323" height="323" viewBox="0 0 323 323" fill="none" xmlns="http://www.w3.org/2000/svg">
    <path
        d="M0 40C0 17.9086 17.9086 0 40 0H283C305.091 0 323 17.9086 323 40V283C323 305.091 305.091 323 283 323H40C17.9086 323 0 305.091 0 283V40Z"
        fill="#1E1E1E" />
    <path
        d="M58 247C60 238.667 62.6667 229.417 66 219.25C69.5 208.917 73.4167 198.167 77.75 187C82.25 175.833 86.8333 164.75 91.5 153.75C96.1667 142.75 100.667 132.25 105 122.25C109.333 112.083 114.333 101.833 120 91.5C121.167 89.5 122.167 87.6667 123 86C124 84.3333 125.083 82.9167 126.25 81.75C119.75 81.9167 112.75 82.75 105.25 84.25C97.9167 85.5833 90.8333 87.5 84 90C77.3333 92.5 71.5833 95.4167 66.75 98.75C62.0833 102.083 59.0833 105.75 57.75 109.75C57.5833 110.25 57.25 110.5 56.75 110.5C55.25 110.5 54.5 109.333 54.5 107C54.5 106.5 54.6667 105.75 55 104.75C56.5 100.417 58.3333 96.5833 60.5 93.25C62.8333 89.9167 65.1667 87.0833 67.5 84.75C73 79.0833 79.1667 75.6667 86 74.5C92.8333 73.1667 100.083 72.5 107.75 72.5H171C182.5 72.5 191.667 74.25 198.5 77.75C205.5 81.25 210.5 85.9167 213.5 91.75C216.5 97.4167 217.667 103.5 217 110C215.833 123.167 211.167 134.083 203 142.75C195 151.25 185.583 157.583 174.75 161.75C167.25 164.583 158.75 166.917 149.25 168.75C139.75 170.417 130.5 171.25 121.5 171.25C119.5 171.25 117.5 171.25 115.5 171.25C113.667 171.083 111.833 170.917 110 170.75C107.833 176.083 105.5 182.083 103 188.75C100.667 195.25 98.4167 201.833 96.25 208.5C94.25 215.167 92.5833 221.417 91.25 227.25C89.9167 232.917 89.25 237.667 89.25 241.5C89.25 244 89.5833 245.833 90.25 247H58ZM111.5 166.75C119.167 166.917 127.167 166.25 135.5 164.75C143.833 163.083 151.833 160.417 159.5 156.75C167.167 152.917 173.667 148 179 142C182.833 137.667 185.833 132.75 188 127.25C190.167 121.583 191.25 116.083 191.25 110.75C191.25 103.917 189.5 97.75 186 92.25C182.5 86.75 176.917 83.1667 169.25 81.5C167.25 81 165.25 80.6667 163.25 80.5C161.25 80.3333 159.083 80.1667 156.75 80C153.083 84.5 149.333 90 145.5 96.5C141.667 103 137.917 109.833 134.25 117C130.75 124 127.417 130.833 124.25 137.5C121.25 144 118.75 149.667 116.75 154.5L111.5 166.75ZM234.449 243.5C226.783 247.5 218.699 249.5 210.199 249.5C203.033 249.5 196.366 247.75 190.199 244.25C184.033 240.75 179.866 235.167 177.699 227.5C176.699 224 176.199 220.333 176.199 216.5C176.199 210.167 177.283 203.667 179.449 197C181.783 190.167 184.783 183.917 188.449 178.25C194.116 169.417 201.283 162.083 209.949 156.25C218.616 150.417 228.199 147.5 238.699 147.5C246.533 147.5 252.616 149.5 256.949 153.5C261.283 157.5 263.449 162.167 263.449 167.5C263.449 173.833 261.283 179.417 256.949 184.25C252.783 188.917 247.283 192.5 240.449 195C237.116 196.167 233.533 197.083 229.699 197.75C226.033 198.25 222.533 198.5 219.199 198.5C212.366 198.5 207.116 197.583 203.449 195.75C200.283 203.917 198.699 211.417 198.699 218.25C198.699 224.417 200.116 229.5 202.949 233.5C205.783 237.333 210.283 239.25 216.449 239.25C221.616 239.25 226.699 237.833 231.699 235C236.866 232.167 241.616 228.667 245.949 224.5C250.449 220.333 254.199 216.333 257.199 212.5C259.533 209.667 261.533 207 263.199 204.5C264.866 202 266.616 199.167 268.449 196C270.283 192.667 272.449 188.583 274.949 183.75C275.616 182.583 276.199 182 276.699 182C277.699 182 278.199 183.333 278.199 186C278.199 187.5 277.949 189.167 277.449 191C277.116 192.667 276.449 194.417 275.449 196.25C273.116 200.417 270.283 205 266.949 210C263.783 214.833 260.533 219.5 257.199 224C254.199 228 250.783 231.667 246.949 235C243.116 238.333 238.949 241.167 234.449 243.5ZM211.699 190.25C212.533 190.75 213.449 191.083 214.449 191.25C215.449 191.417 216.449 191.5 217.449 191.5C220.783 191.5 224.116 190.75 227.449 189.25C230.783 187.583 233.616 185.917 235.949 184.25C239.783 181.583 243.033 178.417 245.699 174.75C248.366 171.083 249.866 166.917 250.199 162.25C250.366 160.25 249.866 158.583 248.699 157.25C247.699 155.75 245.866 155 243.199 155C241.866 155 240.199 155.25 238.199 155.75C235.533 156.417 232.866 157.667 230.199 159.5C227.533 161.333 224.949 163.5 222.449 166C221.616 166.833 220.116 168.5 217.949 171C215.949 173.333 214.033 176 212.199 179C210.366 181.833 209.449 184.333 209.449 186.5C209.449 188.333 210.199 189.583 211.699 190.25Z"
        fill="white" />
</svg>